<svg width="119" height="43" viewBox="0 0 119 43" fill="none" xmlns="http://www.w3.org/2000/svg">
<path fill-rule="evenodd" clip-rule="evenodd" d="M15.1102 0H21.1044V2.20547H15.1102V0ZM116.761 20.5982H118.925V37.3681H116.761V20.5982ZM15.1311 26.3616V28.567L7.59675 28.5754C1.66504 28.5837 0.0541138 28.5754 0.0333008 28.5337C0.0166504 28.5088 0 28.0302 0 27.4768C0 26.9192 0.0124878 26.4365 0.0249756 26.4032C0.0457886 26.3491 0.911609 26.3408 15.1311 26.3616ZM86.811 27.198C87.2356 27.2063 87.5686 27.2396 87.8517 27.302C88.0806 27.3478 88.4386 27.4435 88.6426 27.5142C88.8465 27.5808 89.2045 27.7265 89.4335 27.8388C89.6624 27.947 90.0204 28.1509 90.2244 28.2882C90.4283 28.4297 90.6989 28.6253 91.0361 28.9207L91.0236 33.6354C91.0111 37.8342 91.0028 38.3834 90.9403 38.6914C90.9029 38.8786 90.8155 39.1866 90.7447 39.378C90.6739 39.5777 90.5033 39.8981 90.3368 40.1561C90.1619 40.4225 89.9288 40.7096 89.7415 40.8844C89.5708 41.0466 89.3128 41.2547 89.1629 41.3546C89.0131 41.4545 88.7425 41.6043 88.5593 41.6958C88.3762 41.7832 88.0557 41.9039 87.8517 41.9621C87.6477 42.0245 87.2231 42.1078 86.9151 42.1535C86.6071 42.1993 86.2116 42.2368 86.041 42.2368C85.8703 42.2368 85.4873 42.1993 85.1876 42.1577C84.8879 42.1119 84.4508 42.0287 84.2094 41.9663C83.968 41.9039 83.5684 41.779 83.3145 41.6875C83.0605 41.5918 82.7067 41.4461 82.5236 41.3629C82.3404 41.2797 82.0574 41.134 81.8992 41.0383C81.741 40.9426 81.5745 40.8386 81.537 40.8011C81.4663 40.7429 81.4871 40.6929 81.8617 39.998C82.0823 39.5944 82.2738 39.2448 82.2905 39.2282C82.3029 39.2074 82.3987 39.2531 82.5027 39.3322C82.6068 39.4071 82.8607 39.5569 83.0647 39.6651C83.2687 39.7691 83.6641 39.9356 83.9388 40.0313C84.2136 40.1228 84.6173 40.2352 84.8338 40.281C85.0503 40.3268 85.3874 40.3725 85.5831 40.3892C85.7829 40.4017 86.1117 40.3933 86.3323 40.3684C86.5488 40.3392 86.861 40.281 87.0192 40.2352C87.1773 40.1853 87.4396 40.0812 87.6019 39.998C87.7726 39.9065 88.0015 39.7359 88.1639 39.5736C88.3137 39.4238 88.4927 39.1907 88.5676 39.0534C88.6426 38.9161 88.7383 38.6539 88.7883 38.4708C88.859 38.192 88.8715 38.0089 88.8715 36.6191L88.4886 36.8479C88.2763 36.9769 87.9141 37.1517 87.6852 37.2433C87.4562 37.3306 87.1482 37.4347 86.9984 37.4721C86.8277 37.5179 86.4697 37.5512 86.0201 37.5637C85.4832 37.5803 85.2209 37.5678 84.9379 37.5179C84.7339 37.4846 84.4425 37.418 84.2927 37.3681C84.1428 37.3223 83.8639 37.2058 83.6724 37.1059C83.481 37.0102 83.1646 36.8063 82.9648 36.6565C82.7691 36.5067 82.4778 36.2362 82.3196 36.0531C82.1656 35.8742 81.9616 35.6037 81.8742 35.4539C81.7868 35.3041 81.6452 35.0253 81.562 34.8297C81.4787 34.6342 81.358 34.268 81.2956 34.0183C81.229 33.7686 81.1541 33.3358 81.1291 33.0612C81.0999 32.7782 81.0875 32.3829 81.1 32.1457C81.1166 31.9168 81.1582 31.5715 81.1957 31.3759C81.2331 31.1803 81.3206 30.8641 81.3872 30.6685C81.4538 30.4729 81.5911 30.165 81.6827 29.9819C81.7785 29.7988 81.9699 29.4992 82.1031 29.3161C82.2405 29.133 82.4944 28.8458 82.6651 28.6752C82.8399 28.5088 83.1313 28.2716 83.3145 28.1509C83.4976 28.0302 83.789 27.8596 83.9597 27.7764C84.1303 27.689 84.4592 27.5559 84.6881 27.4809C84.9171 27.4019 85.2834 27.3103 85.4998 27.277C85.7163 27.2438 85.9619 27.2063 86.041 27.198C86.12 27.1897 86.4697 27.1855 86.811 27.198ZM85.2917 29.262C85.1418 29.3161 84.9129 29.4243 84.7755 29.5033C84.6423 29.5824 84.4092 29.7613 84.2594 29.8986C84.1095 30.036 83.9222 30.2523 83.8348 30.3772C83.7515 30.502 83.6308 30.7184 83.5684 30.8557C83.5018 30.993 83.4144 31.2469 83.3686 31.4175C83.3228 31.5964 83.277 31.9418 83.2645 32.2289C83.2478 32.5369 83.2603 32.8615 83.2936 33.082C83.3186 33.2776 83.3935 33.5855 83.456 33.7686C83.5143 33.9517 83.6308 34.2139 83.7099 34.3512C83.789 34.4885 83.9971 34.7423 84.1678 34.9171C84.3385 35.0919 84.5757 35.2875 84.6881 35.354C84.8047 35.4206 85.0086 35.5122 85.146 35.5621C85.2834 35.612 85.5664 35.6786 85.7704 35.7036C86.0618 35.7452 86.2408 35.7452 86.5821 35.7036C86.8235 35.6786 87.169 35.6079 87.3522 35.5496C87.5353 35.4914 87.7809 35.3957 87.8933 35.3374C88.0099 35.2833 88.1847 35.1751 88.2888 35.1085C88.3928 35.0378 88.5677 34.8921 88.6759 34.7881L88.8757 34.6009L88.8715 29.857C88.372 29.5241 88.1514 29.391 88.0598 29.3452C87.9682 29.2994 87.7601 29.2204 87.6019 29.1704C87.3772 29.0997 87.1773 29.0747 86.7278 29.0622C86.3393 29.0511 86.0479 29.065 85.8536 29.1038C85.6955 29.1371 85.4415 29.2037 85.2917 29.262ZM15.1102 4.41093H25.6832V6.6164H15.1102V4.41093ZM15.1102 8.82187H30.2205V11.0273H15.1102V8.82187ZM15.1102 13.1912H25.6666L25.6624 15.4175L15.1102 15.4383V13.1912ZM10.573 17.6021H19.6475V19.8076H10.573V17.6021ZM72.2627 20.5982H74.4273V36.0365L74.2525 36.178C74.1526 36.2529 73.932 36.411 73.7613 36.5234C73.5906 36.6399 73.2909 36.8105 73.0953 36.9104C72.8996 37.0061 72.5833 37.1475 72.3876 37.2225C72.192 37.2974 71.8007 37.4139 71.5135 37.4846C71.2263 37.5554 70.8058 37.6344 70.5769 37.6635C70.3188 37.6927 69.9234 37.7052 69.5362 37.6885C69.1949 37.6719 68.7703 37.6344 68.5997 37.597C68.429 37.5637 68.1543 37.4929 67.9961 37.4472C67.8379 37.3972 67.5632 37.2932 67.3925 37.2141C67.2218 37.1351 66.9221 36.9645 66.7265 36.8396C66.5308 36.7106 66.2062 36.4485 66.0022 36.2487C65.7691 36.024 65.5277 35.7286 65.3487 35.4539C65.1738 35.1918 64.9907 34.8505 64.8949 34.6009C64.8075 34.372 64.6951 34.0266 64.6494 33.831C64.5994 33.6354 64.5411 33.2817 64.5162 33.0404C64.4912 32.7949 64.4787 32.4204 64.4953 32.1873C64.5078 31.9585 64.5494 31.6048 64.5869 31.3967C64.6244 31.1928 64.7076 30.8557 64.7784 30.6477C64.845 30.4438 64.9615 30.14 65.0365 29.9819C65.1114 29.8237 65.2904 29.5116 65.4361 29.2953C65.5859 29.0789 65.8565 28.7543 66.0397 28.567C66.227 28.3839 66.5433 28.1218 66.7473 27.9845C66.9554 27.8471 67.2801 27.6682 67.4758 27.5808C67.6714 27.4934 67.9711 27.3894 68.1418 27.3436C68.3124 27.302 68.6246 27.2438 68.8286 27.2188C69.0326 27.1938 69.3531 27.173 69.5362 27.173C69.7194 27.173 70.0649 27.2021 70.3063 27.2396C70.606 27.2812 70.8808 27.3603 71.1805 27.4768C71.4219 27.5725 71.7632 27.7389 72.2627 28.0469V20.5982ZM68.9327 29.1579C68.7828 29.1954 68.5206 29.2953 68.3499 29.3785C68.1792 29.4659 67.9253 29.6282 67.7879 29.7405C67.6506 29.8529 67.4466 30.0693 67.3342 30.2149C67.226 30.3605 67.0803 30.5894 67.0137 30.7226C66.9471 30.8516 66.843 31.122 66.7806 31.326C66.6807 31.6589 66.6682 31.7462 66.6682 32.3954C66.6682 33.0029 66.6807 33.1527 66.764 33.4565C66.8181 33.6521 66.9138 33.9309 66.9846 34.0807C67.0512 34.2305 67.1885 34.4635 67.2843 34.6009C67.3842 34.7382 67.5798 34.9587 67.7214 35.0919C67.892 35.25 68.1002 35.3873 68.3624 35.5122C68.5955 35.6287 68.8827 35.7244 69.0992 35.7702C69.3739 35.8243 69.5862 35.8326 70.0566 35.8159C70.4936 35.7993 70.7476 35.7702 70.9723 35.7036C71.143 35.6537 71.5052 35.4997 71.7757 35.3582L72.2627 35.1002V30.0027C71.7965 29.6406 71.5093 29.4617 71.3262 29.3743C71.143 29.2828 70.8891 29.1829 70.7642 29.1455C70.6352 29.1122 70.2938 29.0747 69.9733 29.0664C69.6653 29.0581 69.3656 29.0581 69.3073 29.0705C69.249 29.0789 69.0825 29.1205 68.9327 29.1579ZM4.57886 21.9714H15.1352L15.1311 24.1977L4.57886 24.2185V21.9714ZM98.4871 22.4292H100.61V27.5059H103.066V29.2536H100.61L100.623 32.075C100.631 34.7215 100.635 34.9046 100.71 35.1002C100.752 35.2167 100.835 35.379 100.897 35.4664C100.964 35.5621 101.089 35.6661 101.214 35.7286C101.38 35.8118 101.484 35.8284 101.755 35.8284C101.938 35.8284 102.184 35.8035 102.296 35.7702C102.412 35.741 102.583 35.6745 102.683 35.6287C102.779 35.5788 102.87 35.5496 102.891 35.5621C102.908 35.5746 103.066 35.8867 103.561 36.9312L103.428 37.0477C103.353 37.1101 103.108 37.2557 102.879 37.3681C102.65 37.4763 102.358 37.5928 102.233 37.6261C102.096 37.6594 101.759 37.6802 101.38 37.6802C100.91 37.6802 100.672 37.6594 100.423 37.6011C100.24 37.5554 99.969 37.4596 99.8192 37.3847C99.6402 37.2974 99.4612 37.16 99.2905 36.9769C99.1448 36.8271 98.97 36.5858 98.8992 36.4443C98.8243 36.2987 98.7327 36.0781 98.6869 35.9533C98.6453 35.8284 98.5829 35.5455 98.5496 35.3291C98.4955 34.9962 98.4871 33.9267 98.4871 28.6836V22.4292ZM78.2153 22.7746C78.4942 22.7829 78.6107 22.8079 78.7772 22.8911C78.8938 22.9535 79.0603 23.0825 79.1477 23.1824C79.2393 23.2822 79.3517 23.4487 79.3933 23.5527C79.4391 23.6568 79.4765 23.844 79.4807 23.9897C79.4849 24.1228 79.4599 24.3309 79.4266 24.4474C79.3808 24.6014 79.3017 24.7179 79.1144 24.9093C78.9021 25.1257 78.8188 25.1798 78.6107 25.238C78.4317 25.288 78.2652 25.3046 78.0279 25.2921C77.799 25.2755 77.6408 25.2422 77.5201 25.1798C77.4202 25.1298 77.2745 25.03 77.1913 24.9551C77.108 24.8802 76.9915 24.7179 76.9332 24.593C76.8374 24.3975 76.8208 24.3101 76.825 24.0313C76.8291 23.819 76.8541 23.6401 76.8957 23.5527C76.9332 23.4695 77.0123 23.3405 77.0705 23.2614C77.133 23.1782 77.2579 23.0575 77.3536 22.991C77.4493 22.9244 77.6034 22.8411 77.6949 22.812C77.7948 22.7829 78.0071 22.7662 78.2153 22.7746ZM94.824 22.7746C95.1237 22.7829 95.2112 22.8037 95.4026 22.9077C95.5275 22.9743 95.6982 23.1158 95.7898 23.2198C95.8772 23.3197 95.9812 23.4986 96.0187 23.6151C96.0562 23.7275 96.0853 23.9356 96.0853 24.0729C96.0853 24.2435 96.0562 24.3891 95.9812 24.5514C95.9271 24.6763 95.8064 24.851 95.7148 24.9426C95.6274 25.03 95.4692 25.1423 95.3652 25.1923C95.2153 25.263 95.0946 25.2796 94.7408 25.2796C94.3662 25.2796 94.2787 25.263 94.1289 25.1839C94.029 25.134 93.8833 25.03 93.8 24.9551C93.7168 24.8802 93.6002 24.7179 93.542 24.593C93.4545 24.4058 93.4296 24.3017 93.4296 24.0521C93.4296 23.7941 93.4504 23.6942 93.542 23.5111C93.6044 23.3821 93.6877 23.2406 93.7293 23.1949C93.7709 23.1491 93.8708 23.0617 93.9499 22.9993C94.029 22.9369 94.1788 22.8578 94.2829 22.8245C94.4078 22.7829 94.5909 22.7662 94.824 22.7746ZM109.768 27.1938C110.101 27.2021 110.53 27.2354 110.725 27.2687C110.921 27.302 111.2 27.3603 111.35 27.3977C111.499 27.4393 111.77 27.5392 111.953 27.6224C112.136 27.7098 112.382 27.843 112.494 27.9179C112.611 27.9969 112.811 28.1634 112.948 28.2924C113.081 28.4214 113.26 28.6253 113.348 28.7543C113.431 28.8791 113.56 29.0955 113.631 29.2328C113.697 29.366 113.797 29.6115 113.843 29.7738C113.893 29.9319 113.964 30.2399 113.997 30.4604C114.043 30.7725 114.055 31.405 114.055 36.1197L113.86 36.2862C113.747 36.3819 113.539 36.54 113.389 36.6399C113.239 36.7397 112.923 36.9145 112.682 37.0269C112.44 37.1434 112.066 37.2932 111.849 37.3598C111.633 37.4305 111.304 37.5137 111.121 37.5512C110.937 37.5845 110.629 37.6344 110.434 37.6552C110.238 37.6802 109.847 37.6968 109.56 37.6968C109.272 37.6968 108.86 37.6719 108.644 37.6386C108.427 37.6053 108.086 37.5304 107.886 37.4721C107.682 37.4139 107.403 37.314 107.262 37.2474C107.116 37.185 106.879 37.0518 106.729 36.952C106.579 36.8479 106.35 36.6648 106.217 36.5358C106.08 36.411 105.884 36.1738 105.776 36.0157C105.668 35.8534 105.534 35.5912 105.476 35.4331C105.389 35.1793 105.376 35.0669 105.38 34.6009C105.38 34.1265 105.397 34.0141 105.493 33.727C105.555 33.5397 105.676 33.2734 105.759 33.1278C105.847 32.978 106.026 32.7491 106.159 32.6159C106.288 32.4828 106.513 32.2955 106.658 32.204C106.8 32.1124 107.058 31.9793 107.229 31.9085C107.399 31.8378 107.711 31.7421 107.915 31.6963C108.248 31.6214 108.498 31.6131 111.953 31.5715L111.924 31.1512C111.907 30.9181 111.87 30.6352 111.837 30.5228C111.807 30.4063 111.737 30.2191 111.678 30.1067C111.624 29.9902 111.504 29.8196 111.412 29.7197C111.32 29.624 111.133 29.4784 110.996 29.3993C110.858 29.3161 110.596 29.212 110.413 29.1621C110.138 29.0872 109.963 29.0705 109.414 29.0664C108.864 29.0664 108.669 29.083 108.29 29.1621C108.04 29.2162 107.653 29.3161 107.437 29.3868C107.22 29.4534 106.916 29.5741 106.762 29.6531C106.604 29.728 106.475 29.7863 106.467 29.7821C106.459 29.778 106.309 29.4367 106.134 29.0248C105.959 28.6086 105.813 28.2508 105.813 28.2217C105.813 28.1925 106.042 28.0594 106.325 27.922C106.617 27.7764 107.045 27.6099 107.333 27.5309C107.607 27.4518 107.99 27.3561 108.186 27.3187C108.382 27.2854 108.681 27.2354 108.852 27.2146C109.023 27.1938 109.435 27.1813 109.768 27.1938ZM108.332 33.4066C108.194 33.469 107.999 33.5938 107.899 33.6854C107.799 33.7769 107.67 33.9434 107.612 34.0599C107.532 34.2139 107.507 34.3304 107.507 34.5176C107.507 34.7007 107.532 34.8172 107.612 34.9754C107.67 35.0877 107.811 35.2667 107.92 35.3665C108.032 35.4706 108.257 35.612 108.415 35.6869C108.577 35.7577 108.864 35.8534 109.06 35.8909C109.331 35.9449 109.522 35.9574 109.872 35.9366C110.126 35.9241 110.48 35.8742 110.663 35.8284C110.846 35.7827 111.146 35.6703 111.329 35.5829C111.512 35.4955 111.724 35.3749 111.799 35.3124L111.932 35.2042V33.2068C109.626 33.211 108.873 33.2318 108.769 33.2526C108.665 33.2734 108.469 33.34 108.332 33.4066ZM77.0497 27.5059H79.2143V37.3681H77.0497V27.5059ZM93.7001 27.5059H95.8231V37.3681H93.7001V27.5059ZM4.57886 30.7517H15.1519V32.9988H4.57886V30.7517ZM9.1161 35.1585L15.1311 35.1834L15.1519 37.4097H9.1161V35.1585Z" fill="#9F7B39"/>
<path fill-rule="evenodd" clip-rule="evenodd" d="M18.278 22.9661L22.0742 22.9827C25.4917 22.9952 25.8997 23.0035 26.1619 23.0701C26.3201 23.1075 26.5948 23.1866 26.7655 23.2449C26.9362 23.3031 27.1984 23.4155 27.3483 23.4945C27.4981 23.5736 27.7395 23.7359 27.8894 23.8566C28.0393 23.9773 28.2515 24.1895 28.3598 24.3226C28.4722 24.46 28.6428 24.7388 28.7469 24.9468C28.8468 25.1549 28.9717 25.4711 29.0175 25.6542C29.0633 25.8373 29.1132 26.1827 29.1257 26.4241C29.1423 26.6862 29.1299 27.0025 29.0966 27.2147C29.0716 27.4103 28.9967 27.7099 28.9342 27.8805C28.8759 28.0511 28.7511 28.3258 28.6595 28.4839C28.5679 28.642 28.3806 28.8959 28.2432 29.0415C28.1059 29.1871 27.8436 29.4035 27.6605 29.5242C27.4773 29.6407 27.2275 29.7822 27.111 29.828C26.9903 29.8779 26.8571 29.9195 26.8196 29.9237C26.778 29.9237 26.8654 29.9695 27.0153 30.0194C27.1651 30.0735 27.3691 30.1567 27.4731 30.2108C27.5772 30.2608 27.7437 30.3648 27.8478 30.4314C27.9518 30.5021 28.1433 30.6644 28.2807 30.7892C28.4139 30.9182 28.6179 31.1637 28.7344 31.3344C28.851 31.505 29.0091 31.7796 29.0841 31.9377C29.159 32.0959 29.2589 32.3788 29.3088 32.5619C29.3838 32.8366 29.4004 33.0072 29.4004 33.519C29.4004 33.9601 29.3796 34.2348 29.3297 34.4553C29.2922 34.6259 29.2006 34.9089 29.134 35.0795C29.0633 35.2501 28.9384 35.5039 28.8551 35.6413C28.7719 35.7786 28.5721 36.0283 28.4097 36.1989C28.2515 36.3653 27.9976 36.5859 27.8478 36.6816C27.6979 36.7814 27.4523 36.9188 27.2983 36.9895C27.1401 37.0602 26.8404 37.1643 26.6323 37.2225C26.42 37.2766 26.0412 37.3432 25.7873 37.3682C25.4917 37.3973 24.0973 37.4098 18.2946 37.389L18.278 22.9661ZM20.48 29.0873C23.8184 29.0873 24.9173 29.0665 25.0713 29.0457C25.2253 29.0207 25.4501 28.9666 25.5708 28.9208C25.6915 28.8792 25.908 28.7627 26.0537 28.6628C26.2202 28.5546 26.3825 28.3965 26.4824 28.255C26.574 28.1302 26.6822 27.9221 26.728 27.7973C26.778 27.6724 26.8363 27.4269 26.8612 27.2563C26.8987 27.0025 26.8945 26.8818 26.8404 26.6113C26.8071 26.4282 26.7239 26.1661 26.6573 26.0329C26.5907 25.8956 26.4616 25.7 26.3659 25.596C26.2743 25.4878 26.1036 25.3463 25.9913 25.2714C25.8789 25.2007 25.6374 25.0883 25.4543 25.0217L25.1213 24.9052L20.4883 24.8761L20.48 29.0873ZM20.48 35.454C25.1879 35.4332 25.346 35.4249 25.6208 35.3458C25.779 35.3 26.0121 35.2085 26.1369 35.1419C26.2577 35.0753 26.4616 34.9047 26.5865 34.7674C26.7155 34.6301 26.8612 34.4303 26.9153 34.3221C26.9695 34.2139 27.0444 34.0059 27.0819 33.8644C27.1235 33.7146 27.1526 33.4441 27.1526 33.2277C27.1526 32.9905 27.1235 32.7617 27.0777 32.6035C27.0402 32.4662 26.9611 32.2706 26.9112 32.1666C26.8612 32.0667 26.7155 31.867 26.5907 31.7297C26.4408 31.5715 26.2577 31.4259 26.0745 31.3302C25.9163 31.247 25.6749 31.1429 25.5375 31.1013C25.3127 31.0389 25.0339 31.0264 22.886 31.0139L20.4841 30.9973L20.48 35.454ZM32.0562 22.9661L35.1448 22.9827C38.1086 22.9994 38.2501 23.0035 38.7122 23.0909C38.9744 23.1408 39.3657 23.2282 39.5863 23.2865C39.8028 23.3447 40.1691 23.4654 40.398 23.557C40.627 23.6485 40.9808 23.8191 41.1889 23.9356C41.3929 24.0522 41.7009 24.2519 41.8757 24.3809C42.0464 24.5057 42.2962 24.7055 42.4335 24.822C42.5667 24.9385 42.829 25.209 43.0121 25.4254C43.1953 25.6459 43.4492 25.983 43.5741 26.1744C43.7031 26.37 43.8946 26.7154 43.9987 26.9442C44.1069 27.1731 44.2609 27.5851 44.3442 27.8597C44.4274 28.1343 44.5231 28.5213 44.5565 28.7128C44.5939 28.9083 44.6439 29.3203 44.6688 29.6282C44.7063 30.0402 44.7063 30.3398 44.6688 30.7518C44.6439 31.0639 44.5856 31.5216 44.5356 31.7713C44.4857 32.0251 44.3775 32.4454 44.29 32.7076C44.2026 32.9739 44.0528 33.3484 43.957 33.5398C43.8571 33.7354 43.6823 34.0433 43.5616 34.2264C43.445 34.4095 43.2078 34.7299 43.0329 34.9338C42.8623 35.1419 42.5459 35.4582 42.3295 35.6413C42.113 35.8202 41.7966 36.0615 41.626 36.1739C41.4512 36.2863 41.1057 36.4777 40.8559 36.5983C40.602 36.7232 40.1899 36.8896 39.9401 36.9729C39.6862 37.0561 39.2575 37.1684 38.9827 37.2267C38.708 37.2808 38.2376 37.3432 37.9421 37.3682C37.6424 37.3931 36.2063 37.4098 32.052 37.4098L32.0562 22.9661ZM34.254 35.4582C37.018 35.4582 37.6299 35.4374 38.0004 35.3957C38.2876 35.3625 38.6913 35.2876 38.8953 35.2293C39.1034 35.1669 39.4198 35.0462 39.603 34.9547C39.7861 34.8673 40.0858 34.6967 40.269 34.576C40.4521 34.4553 40.756 34.2056 40.9392 34.0225C41.1265 33.8353 41.4012 33.4899 41.576 33.2319C41.7384 32.9781 41.934 32.6243 42.0006 32.4413C42.0714 32.2582 42.163 31.9752 42.2087 31.8171C42.2504 31.6548 42.317 31.3552 42.3503 31.1513C42.3877 30.9349 42.4169 30.5312 42.4169 30.2025C42.4127 29.8904 42.3961 29.4868 42.3711 29.3078C42.3461 29.133 42.2795 28.8168 42.2254 28.6129C42.1713 28.4048 42.0714 28.0886 42.0006 27.9055C41.934 27.7224 41.7675 27.3978 41.6343 27.1856C41.5011 26.9734 41.2555 26.6488 41.0807 26.4615C40.91 26.2743 40.6478 26.0288 40.4979 25.9164C40.3522 25.8082 40.0525 25.6251 39.8319 25.5128C39.6154 25.4046 39.2575 25.2548 39.0327 25.184C38.8079 25.1133 38.4541 25.0217 38.2418 24.9843C37.9421 24.9343 37.4592 24.9135 36.0606 24.8969L34.2665 24.8761L34.254 35.4582ZM47.2413 22.9744L50.3841 22.9785L50.6505 23.6319C50.7962 23.9939 51.175 24.9219 51.4872 25.7C51.8035 26.4782 52.2031 27.4727 52.378 27.9055C52.5528 28.3424 52.8151 28.9874 52.9607 29.3411C53.1064 29.699 53.4977 30.6602 53.8307 31.4842C54.1637 32.3081 54.4593 33.0488 54.5509 33.2735L54.8797 32.4621C55.0587 32.0168 55.4084 31.1471 55.6581 30.5271C55.912 29.9112 56.3116 28.9291 56.5447 28.3424C56.7778 27.7598 57.1858 26.7486 57.4522 26.0953C57.7144 25.4462 58.0516 24.6098 58.2015 24.2436C58.3513 23.8774 58.5303 23.4488 58.7218 22.9952L61.8354 22.9744L61.8521 37.414H59.6459L59.6251 26.1161L59.317 26.8652C59.1464 27.2771 58.7551 28.2342 58.4471 28.9874C58.139 29.7448 57.6478 30.9515 57.3564 31.6714C57.0609 32.3955 56.5697 33.6022 56.2617 34.3554C55.9537 35.1128 55.5457 36.1115 55.0046 37.4181H54.0888L53.8932 36.9271C53.7849 36.6566 53.5269 36.0241 53.3146 35.5206C53.1064 35.0171 52.8817 34.4678 52.8151 34.293C52.7526 34.1224 52.5653 33.6647 52.403 33.2735C52.2406 32.8865 51.9742 32.2415 51.8119 31.8379C51.6537 31.4384 51.354 30.7102 51.1542 30.215C50.9502 29.7239 50.5797 28.8168 50.33 28.1968C50.0802 27.5809 49.7847 26.8527 49.4683 26.087L49.4475 37.414L47.2621 37.3931L47.2413 22.9744Z" fill="black"/>
</svg>
