<svg width="1998" height="204" viewBox="0 0 1998 204" fill="none" xmlns="http://www.w3.org/2000/svg">
<path d="M1538.64 202.955H1603.42L1628.83 173.172L1584.78 173.442L1628.94 74.9917L1668.96 172.925L1628.83 173.172L1654.82 202.955H1713.68L1630.17 0L1538.64 202.955ZM715.764 204H780.543L805.967 174.217L761.905 174.498L806.068 76.0366L846.087 173.97L805.967 174.217L831.942 204H890.79L807.282 1.04483L715.764 204ZM1366.14 105.168C1366.14 158.949 1410.16 202.708 1464.25 202.708C1491.97 202.708 1518.45 191.103 1536.9 170.869L1540.02 167.453L1519.75 147.253L1516.35 151.017C1503.18 165.555 1484.2 173.891 1464.25 173.891C1426.7 173.891 1396.14 143.063 1396.14 105.168C1396.14 67.2623 1426.7 36.4342 1464.25 36.4342C1483.59 36.4342 1502.23 44.3659 1515.38 58.1958L1518.53 61.5101L1540.2 43.0514L1536.81 39.3552C1518.24 19.1889 1491.79 7.61714 1464.25 7.61714C1410.16 7.61714 1366.14 51.3764 1366.14 105.168ZM0.651614 8.85296L38.2317 38.8272L126.885 106.213L38.0857 173.588C18.8519 188.867 11.6279 194.304 11.5605 194.361L0 203.056H51.1854L52.4998 202.045C52.5111 202.034 54.8928 200.191 57.0611 198.63L162.578 118.571C166.476 115.279 168.442 111.527 168.442 107.393C168.442 101.607 166.689 97.1915 163.027 94.1132L56.8027 13.4704C55.4096 12.5155 53.4885 10.7741 52.8706 10.1899L51.4662 8.85296H0.651614ZM1965.27 203.034H1997.26V9.42593H1965.27V203.034ZM1854.26 203.056H1886.25V9.4484H1854.26V203.056ZM1722.41 53.1851C1722.41 80.0024 1742.17 92.6976 1758.71 108.415C1782.33 130.873 1798.42 145.445 1798.42 153.826C1798.42 162.184 1784.24 173.015 1769 173.015C1754.15 173.015 1744.83 163.061 1739.57 153.961L1737.17 149.804L1712.8 163.667L1714.96 167.802C1724.32 185.71 1741.11 202.18 1769 202.955C1796.67 203.73 1828.42 177.014 1828.42 150.95C1828.42 123.537 1774.3 83.4964 1769 78.5981C1761.61 71.7898 1752.31 62.3751 1751.92 54.2974C1751.53 46.3769 1759.88 36.0073 1769 35.9174C1779.99 35.8163 1793.94 48.8036 1796.58 51.6235L1799.62 54.8591L1820.88 37.9958L1817.68 34.1872C1809.79 24.795 1789.76 9.52704 1769 9.52704C1744.44 9.52704 1722.41 32.0863 1722.41 53.1851ZM1075.65 106.213C1075.65 159.421 1118.94 202.708 1172.19 202.708C1225.46 202.708 1268.79 159.421 1268.79 106.213C1268.79 53.0054 1225.46 9.70679 1172.19 9.70679C1118.94 9.70679 1075.65 53.0054 1075.65 106.213ZM1105.41 106.213C1105.41 68.7677 1135.36 38.3104 1172.19 38.3104C1209.05 38.3104 1239.03 68.7677 1239.03 106.213C1239.03 143.647 1209.05 174.104 1172.19 174.104C1135.36 174.104 1105.41 143.647 1105.41 106.213ZM903.597 9.70679V202.708H957.333C1014.37 202.708 1057.39 161.229 1057.39 106.213C1057.39 49.399 1012 9.70679 947.008 9.70679H903.597ZM933.605 38.0408H947.57C995.261 38.0408 1027.3 65.431 1027.3 106.213C1027.3 145.074 997.429 174.385 957.816 174.385H933.605V38.0408ZM596.799 9.70679V203.056H626.807V119.335H646.962L678.914 203.056H711.719L677.386 113.92C696.53 104.82 708.225 86.2939 708.225 64.4873C708.225 32.2324 683.408 9.70679 647.872 9.70679H596.799ZM626.807 38.0745H647.872C654.995 38.0745 678.217 39.9844 678.217 64.4873C678.217 89.0576 654.995 90.9675 647.872 90.9675H626.807V38.0745ZM526.83 9.70679V164.42C515.449 171.093 502.27 174.891 490.272 174.891C466.297 174.891 440.727 170.768 440.727 121.537V9.70679H410.719V128.076C410.719 194.226 453.242 202.708 490.272 202.708C512.348 202.708 535.84 195.316 554.725 182.418L556.838 180.98V9.70679H526.83ZM189.058 106.213C189.058 159.421 232.345 202.708 285.553 202.708C338.805 202.708 382.138 159.421 382.138 106.213C382.138 53.0054 338.805 9.70679 285.553 9.70679C232.345 9.70679 189.058 53.0054 189.058 106.213ZM218.807 106.213C218.807 68.7677 248.748 38.3104 285.553 38.3104C322.403 38.3104 352.377 68.7677 352.377 106.213C352.377 143.647 322.403 174.104 285.553 174.104C248.748 174.104 218.807 143.647 218.807 106.213ZM38.198 87.4735C34.0637 91.6528 31.974 96.7646 31.974 102.663C31.974 108.482 34.0637 113.549 38.198 117.717C42.3437 121.919 47.4217 124.043 53.2975 124.043C59.0834 124.043 64.1165 121.919 68.2621 117.729C72.3965 113.549 74.4862 108.482 74.4862 102.663C74.4862 96.7646 72.3965 91.6528 68.2621 87.4735C64.1165 83.283 59.0834 81.1596 53.2975 81.1596C47.4217 81.1596 42.3437 83.283 38.198 87.4735ZM1910.27 90.6192C1906.06 94.9109 1903.91 100.169 1903.91 106.235C1903.91 112.302 1906.06 117.549 1910.27 121.829C1914.52 126.155 1919.72 128.345 1925.73 128.345C1931.74 128.345 1936.94 126.155 1941.18 121.84C1945.4 117.549 1947.54 112.302 1947.54 106.235C1947.54 100.169 1945.4 94.9109 1941.18 90.6192C1936.94 86.3051 1931.74 84.1143 1925.73 84.1143C1919.72 84.1143 1914.52 86.3051 1910.27 90.6192Z" fill="url(#paint0_linear_13120_48361)"/>
<path d="M1538.64 202.955H1603.42L1628.83 173.172L1584.78 173.442L1628.94 74.9917L1668.96 172.925L1628.83 173.172L1654.82 202.955H1713.68L1630.17 0L1538.64 202.955ZM715.764 204H780.543L805.967 174.217L761.905 174.498L806.068 76.0366L846.087 173.97L805.967 174.217L831.942 204H890.79L807.282 1.04483L715.764 204ZM1366.14 105.168C1366.14 158.949 1410.16 202.708 1464.25 202.708C1491.97 202.708 1518.45 191.103 1536.9 170.869L1540.02 167.453L1519.75 147.253L1516.35 151.017C1503.18 165.555 1484.2 173.891 1464.25 173.891C1426.7 173.891 1396.14 143.063 1396.14 105.168C1396.14 67.2623 1426.7 36.4342 1464.25 36.4342C1483.59 36.4342 1502.23 44.3659 1515.38 58.1958L1518.53 61.5101L1540.2 43.0514L1536.81 39.3552C1518.24 19.1889 1491.79 7.61714 1464.25 7.61714C1410.16 7.61714 1366.14 51.3764 1366.14 105.168ZM0.651614 8.85296L38.2317 38.8272L126.885 106.213L38.0857 173.588C18.8519 188.867 11.6279 194.304 11.5605 194.361L0 203.056H51.1854L52.4998 202.045C52.5111 202.034 54.8928 200.191 57.0611 198.63L162.578 118.571C166.476 115.279 168.442 111.527 168.442 107.393C168.442 101.607 166.689 97.1915 163.027 94.1132L56.8027 13.4704C55.4096 12.5155 53.4885 10.7741 52.8706 10.1899L51.4662 8.85296H0.651614ZM1965.27 203.034H1997.26V9.42593H1965.27V203.034ZM1854.26 203.056H1886.25V9.4484H1854.26V203.056ZM1722.41 53.1851C1722.41 80.0024 1742.17 92.6976 1758.71 108.415C1782.33 130.873 1798.42 145.445 1798.42 153.826C1798.42 162.184 1784.24 173.015 1769 173.015C1754.15 173.015 1744.83 163.061 1739.57 153.961L1737.17 149.804L1712.8 163.667L1714.96 167.802C1724.32 185.71 1741.11 202.18 1769 202.955C1796.67 203.73 1828.42 177.014 1828.42 150.95C1828.42 123.537 1774.3 83.4964 1769 78.5981C1761.61 71.7898 1752.31 62.3751 1751.92 54.2974C1751.53 46.3769 1759.88 36.0073 1769 35.9174C1779.99 35.8163 1793.94 48.8036 1796.58 51.6235L1799.62 54.8591L1820.88 37.9958L1817.68 34.1872C1809.79 24.795 1789.76 9.52704 1769 9.52704C1744.44 9.52704 1722.41 32.0863 1722.41 53.1851ZM1075.65 106.213C1075.65 159.421 1118.94 202.708 1172.19 202.708C1225.46 202.708 1268.79 159.421 1268.79 106.213C1268.79 53.0054 1225.46 9.70679 1172.19 9.70679C1118.94 9.70679 1075.65 53.0054 1075.65 106.213ZM1105.41 106.213C1105.41 68.7677 1135.36 38.3104 1172.19 38.3104C1209.05 38.3104 1239.03 68.7677 1239.03 106.213C1239.03 143.647 1209.05 174.104 1172.19 174.104C1135.36 174.104 1105.41 143.647 1105.41 106.213ZM903.597 9.70679V202.708H957.333C1014.37 202.708 1057.39 161.229 1057.39 106.213C1057.39 49.399 1012 9.70679 947.008 9.70679H903.597ZM933.605 38.0408H947.57C995.261 38.0408 1027.3 65.431 1027.3 106.213C1027.3 145.074 997.429 174.385 957.816 174.385H933.605V38.0408ZM596.799 9.70679V203.056H626.807V119.335H646.962L678.914 203.056H711.719L677.386 113.92C696.53 104.82 708.225 86.2939 708.225 64.4873C708.225 32.2324 683.408 9.70679 647.872 9.70679H596.799ZM626.807 38.0745H647.872C654.995 38.0745 678.217 39.9844 678.217 64.4873C678.217 89.0576 654.995 90.9675 647.872 90.9675H626.807V38.0745ZM526.83 9.70679V164.42C515.449 171.093 502.27 174.891 490.272 174.891C466.297 174.891 440.727 170.768 440.727 121.537V9.70679H410.719V128.076C410.719 194.226 453.242 202.708 490.272 202.708C512.348 202.708 535.84 195.316 554.725 182.418L556.838 180.98V9.70679H526.83ZM189.058 106.213C189.058 159.421 232.345 202.708 285.553 202.708C338.805 202.708 382.138 159.421 382.138 106.213C382.138 53.0054 338.805 9.70679 285.553 9.70679C232.345 9.70679 189.058 53.0054 189.058 106.213ZM218.807 106.213C218.807 68.7677 248.748 38.3104 285.553 38.3104C322.403 38.3104 352.377 68.7677 352.377 106.213C352.377 143.647 322.403 174.104 285.553 174.104C248.748 174.104 218.807 143.647 218.807 106.213ZM38.198 87.4735C34.0637 91.6528 31.974 96.7646 31.974 102.663C31.974 108.482 34.0637 113.549 38.198 117.717C42.3437 121.919 47.4217 124.043 53.2975 124.043C59.0834 124.043 64.1165 121.919 68.2621 117.729C72.3965 113.549 74.4862 108.482 74.4862 102.663C74.4862 96.7646 72.3965 91.6528 68.2621 87.4735C64.1165 83.283 59.0834 81.1596 53.2975 81.1596C47.4217 81.1596 42.3437 83.283 38.198 87.4735ZM1910.27 90.6192C1906.06 94.9109 1903.91 100.169 1903.91 106.235C1903.91 112.302 1906.06 117.549 1910.27 121.829C1914.52 126.155 1919.72 128.345 1925.73 128.345C1931.74 128.345 1936.94 126.155 1941.18 121.84C1945.4 117.549 1947.54 112.302 1947.54 106.235C1947.54 100.169 1945.4 94.9109 1941.18 90.6192C1936.94 86.3051 1931.74 84.1143 1925.73 84.1143C1919.72 84.1143 1914.52 86.3051 1910.27 90.6192Z" fill="url(#paint1_linear_13120_48361)"/>
<defs>
<linearGradient id="paint0_linear_13120_48361" x1="11.0993" y1="114.693" x2="1979.38" y2="103.593" gradientUnits="userSpaceOnUse">
<stop stop-color="#9F6E19"/>
<stop offset="0.245256" stop-color="#EAB317"/>
<stop offset="0.452898" stop-color="#C18A16"/>
<stop offset="0.631307" stop-color="#B57C16"/>
<stop offset="0.793505" stop-color="#D89826"/>
<stop offset="1" stop-color="#B87B13"/>
</linearGradient>
<linearGradient id="paint1_linear_13120_48361" x1="11.0993" y1="114.693" x2="1979.38" y2="103.593" gradientUnits="userSpaceOnUse">
<stop stop-color="#9F6E19"/>
<stop offset="0.245256" stop-color="#EAB317"/>
<stop offset="0.452898" stop-color="#C18A16"/>
<stop offset="0.631307" stop-color="#B57C16"/>
<stop offset="0.793505" stop-color="#D89826"/>
<stop offset="1" stop-color="#B87B13"/>
</linearGradient>
</defs>
</svg>
