<svg width="835" height="297" viewBox="0 0 835 297" fill="none" xmlns="http://www.w3.org/2000/svg">
<path fill-rule="evenodd" clip-rule="evenodd" d="M148.178 0L148.324 0.672205C148.412 1.02292 148.47 4.44243 148.47 8.24187C148.47 14.1748 148.412 15.2562 148.003 15.6362C147.623 16.0161 144.876 16.0746 127.106 16.0746C109.336 16.0746 106.618 16.0161 106.238 15.6362C105.887 15.2854 105.8 13.9995 105.771 8.15418C105.771 3.47795 105.858 0.935245 106.063 0.555301C106.384 0.0292247 106.94 0 148.178 0ZM819.802 144.963H835V203.855C835 255.936 834.942 262.775 834.562 262.892C834.328 262.98 831.113 263.038 827.401 263.038C823.689 263.038 820.474 262.98 820.241 262.892C819.861 262.775 819.802 255.936 819.802 203.855V144.963ZM0 185.296H106.384V201.078H0V185.296ZM607.764 190.878C608.407 190.878 610.365 190.995 612.148 191.141C613.931 191.316 616.211 191.638 617.263 191.901C618.315 192.135 620.419 192.719 621.939 193.216C623.459 193.713 626.294 194.882 628.223 195.788C630.152 196.723 632.899 198.331 634.331 199.354C635.763 200.377 637.488 201.75 639.475 203.562V234.25C639.475 252.897 639.358 266.195 639.183 268.153C639.007 269.906 638.598 272.42 638.277 273.706C637.955 274.992 637.312 276.891 636.874 277.944C636.435 278.996 635.325 281.012 634.39 282.474C633.454 283.935 631.818 285.952 630.736 287.004C629.684 288.056 627.814 289.634 626.615 290.482C625.417 291.329 623.693 292.382 622.816 292.849C621.939 293.288 620.098 294.047 618.724 294.544C617.351 295.012 614.866 295.713 613.171 296.093C610.512 296.707 609.342 296.795 604.257 296.795C599.405 296.795 597.886 296.678 595.197 296.152C593.414 295.801 590.141 294.895 587.89 294.194C585.64 293.463 582.483 292.294 580.876 291.592C579.268 290.891 576.667 289.576 575.118 288.67C573.54 287.764 572.196 286.799 572.108 286.565C572.02 286.332 573.248 283.76 574.826 280.866C576.375 277.973 577.836 275.606 578.041 275.606C578.216 275.606 579.005 276.044 579.795 276.599C580.554 277.155 582.688 278.324 584.529 279.23C586.371 280.106 589.147 281.246 590.667 281.743C592.187 282.24 594.759 282.912 596.366 283.234C598.383 283.672 600.37 283.847 602.796 283.847C604.9 283.847 607.238 283.643 608.641 283.351C609.927 283.087 611.768 282.532 612.733 282.152C613.697 281.743 615.275 280.925 616.24 280.282C617.204 279.668 618.607 278.528 619.338 277.739C620.069 276.979 621.121 275.489 621.705 274.436C622.29 273.384 622.991 271.748 623.254 270.783C623.605 269.526 623.78 267.481 623.868 263.418C623.926 260.32 623.926 257.777 623.839 257.777C623.751 257.777 622.991 258.216 622.173 258.771C621.325 259.297 619.981 260.086 619.163 260.495C618.373 260.905 616.649 261.635 615.363 262.161C614.077 262.658 612.031 263.36 610.833 263.681C609.372 264.061 607.209 264.295 604.403 264.412C601.802 264.499 599.142 264.441 597.535 264.236C596.103 264.032 593.531 263.418 591.836 262.863C590.141 262.307 587.715 261.255 586.429 260.525C585.143 259.794 583.126 258.45 581.928 257.544C580.73 256.638 579.035 255.03 578.158 253.978C577.281 252.926 576.054 251.348 575.469 250.471C574.855 249.594 573.978 248.074 573.511 247.11C573.014 246.145 572.254 244.362 571.816 243.164C571.377 241.966 570.705 239.599 570.296 237.903C569.741 235.565 569.536 233.695 569.419 230.012C569.302 226.943 569.39 224.225 569.624 222.559C569.799 221.098 570.296 218.819 570.676 217.445C571.085 216.071 572.166 213.382 573.131 211.453C574.183 209.349 575.674 206.953 576.843 205.433C577.953 204.059 579.824 202.043 581.022 200.932C582.22 199.821 584.266 198.243 585.552 197.425C586.838 196.577 588.562 195.554 589.352 195.145C590.17 194.736 592.128 193.947 593.736 193.391C595.343 192.836 597.769 192.164 599.142 191.872C600.516 191.609 602.737 191.258 604.111 191.141C605.485 191.024 607.121 190.907 607.764 190.878ZM600.312 205.345C599.435 205.608 597.71 206.31 596.512 206.923C595.314 207.508 593.531 208.706 592.567 209.554C591.602 210.401 590.228 211.833 589.556 212.739C588.855 213.645 587.773 215.428 587.13 216.714C586.517 218 585.815 219.841 585.552 220.806C585.318 221.77 584.968 223.875 584.792 225.482C584.558 227.586 584.558 229.165 584.792 231.181C584.968 232.701 585.406 234.952 585.728 236.15C586.049 237.348 586.838 239.335 587.481 240.534C588.095 241.732 589.118 243.34 589.702 244.07C590.316 244.801 591.397 245.911 592.128 246.554C592.859 247.197 594.174 248.103 595.051 248.629C595.928 249.126 597.477 249.828 598.5 250.149C599.493 250.5 601.334 250.909 602.591 251.085C604.199 251.318 605.601 251.318 607.472 251.085C608.904 250.909 610.891 250.558 611.856 250.325C612.82 250.062 615.042 249.156 616.824 248.308C619.075 247.197 620.624 246.204 622.027 244.947L623.985 243.164V210.284C621.15 208.18 619.484 207.157 618.432 206.631C617.38 206.105 615.597 205.462 614.486 205.17C613.376 204.877 611.184 204.585 609.664 204.498C608.144 204.439 605.777 204.468 604.403 204.614C603.03 204.761 601.188 205.082 600.312 205.345ZM143.093 30.98C163.084 30.98 179.655 31.0385 179.889 31.1262C180.269 31.2431 180.327 32.3829 180.327 39.0173C180.327 45.6517 180.269 46.7916 179.889 46.9085C179.655 46.9961 163.084 47.0546 143.064 47.0546C111.119 47.0546 106.618 46.9962 106.238 46.6162C105.887 46.2655 105.8 44.9795 105.771 39.0465C105.771 32.7921 105.829 31.8276 106.238 31.4477C106.677 31.0385 110.418 30.98 143.093 30.98ZM212.184 61.9601V77.7424H159.138C112.259 77.7424 106.063 77.6839 105.946 77.304C105.858 77.0702 105.8 73.7091 105.8 69.8512C105.8 65.9933 105.887 62.6323 105.975 62.3985C106.121 62.0186 112.317 61.9601 212.184 61.9601ZM143.093 92.6479C163.084 92.6479 179.655 92.7063 179.889 92.794C180.269 92.9109 180.327 94.0508 180.327 100.685C180.327 107.32 180.269 108.459 179.889 108.576C179.655 108.664 163.084 108.722 143.064 108.722C111.119 108.722 106.618 108.664 106.238 108.284C105.887 107.933 105.8 106.647 105.771 100.714C105.771 94.4599 105.829 93.4954 106.238 93.1155C106.677 92.7063 110.418 92.6479 143.093 92.6479ZM137.949 123.628V139.41H73.9429L73.8845 131.724C73.8553 127.486 73.9429 123.92 74.0891 123.833C74.2352 123.716 88.6439 123.628 137.949 123.628ZM507.371 144.963H514.97C521.458 144.963 522.598 145.022 522.715 145.402C522.803 145.635 522.861 169.981 522.861 253.101L521.926 254.007C521.4 254.504 519.763 255.702 518.331 256.696C516.899 257.66 514.269 259.151 512.486 260.028C510.703 260.875 507.693 262.103 505.764 262.746C503.835 263.36 501.234 264.09 500.006 264.324C498.75 264.587 496.382 264.938 494.746 265.113C493.021 265.318 490.157 265.376 488.082 265.289C486.065 265.172 483.376 264.909 482.09 264.675C480.805 264.412 478.7 263.886 477.414 263.447C476.128 263.038 474.082 262.249 472.884 261.694C471.686 261.109 469.582 259.911 468.208 259.005C466.834 258.099 464.671 256.345 463.386 255.118C462.1 253.89 460.375 251.903 459.557 250.734C458.709 249.536 457.453 247.402 456.722 245.941C455.991 244.479 455.056 242.258 454.647 240.972C454.238 239.686 453.682 237.699 453.419 236.588C453.185 235.478 452.893 232.497 452.806 230.012C452.718 227.177 452.776 224.488 453.01 222.852C453.185 221.39 453.682 218.994 454.062 217.533C454.442 216.042 455.29 213.587 455.933 212.126C456.576 210.635 457.803 208.297 458.651 206.953C459.469 205.608 461.281 203.328 462.655 201.867C464.029 200.406 466.191 198.448 467.477 197.483C468.763 196.548 471.131 195.116 472.738 194.327C474.375 193.538 476.947 192.573 478.583 192.164C480.191 191.755 483.026 191.287 484.867 191.112C487.234 190.907 489.163 190.907 491.443 191.141C493.226 191.316 495.622 191.696 496.791 192.018C497.931 192.339 500.182 193.216 501.76 193.947C503.309 194.677 505.209 195.642 507.371 196.986V144.963ZM482.821 205.462C481.769 205.813 480.132 206.514 479.168 207.069C478.203 207.596 476.625 208.735 475.69 209.583C474.755 210.46 473.41 211.95 472.738 212.915C472.037 213.879 471.101 215.457 470.604 216.422C470.137 217.386 469.465 219.023 469.143 220.075C468.822 221.127 468.413 223.29 468.237 224.898C468.003 226.856 468.003 228.697 468.179 230.451C468.325 231.912 468.676 234.016 468.939 235.127C469.202 236.237 469.991 238.342 470.692 239.803C471.394 241.264 472.563 243.223 473.323 244.187C474.053 245.152 475.368 246.496 476.187 247.197C477.034 247.87 478.554 248.863 479.606 249.419C480.658 249.974 482.441 250.705 483.552 251.055C485.013 251.523 486.621 251.757 489.251 251.844C491.384 251.932 493.81 251.874 495.096 251.669C496.295 251.464 498.223 250.997 499.334 250.588C500.474 250.208 502.724 249.126 504.39 248.191L507.371 246.525L507.342 211.161C504.303 208.765 502.111 207.42 500.503 206.631C498.808 205.784 496.85 205.082 495.827 204.907C494.862 204.761 492.963 204.556 491.589 204.498C490.215 204.41 488.111 204.468 486.913 204.585C485.715 204.731 483.873 205.111 482.821 205.462ZM32.1491 154.608H106.384V170.39H32.1491V154.608ZM698.98 157.531C705.322 157.531 706.433 157.589 706.55 157.969C706.637 158.203 706.696 166.24 706.696 193.187H714.967C719.497 193.187 723.384 193.304 723.56 193.421C723.852 193.567 723.91 195.116 723.793 205.9L706.696 206.047L706.842 245.648L707.543 247.402C707.953 248.366 708.742 249.623 709.326 250.179C709.911 250.734 710.963 251.377 711.694 251.611C712.512 251.844 713.827 251.932 715.318 251.874C716.984 251.757 718.182 251.494 719.555 250.938C720.608 250.5 721.718 250.062 722.04 249.974C722.537 249.857 722.917 250.471 724.904 254.533C726.131 257.134 727.154 259.443 727.154 259.677C727.154 259.911 726.599 260.495 725.927 260.963C725.225 261.431 723.618 262.337 722.332 262.98C721.046 263.623 719.146 264.383 718.094 264.675C716.633 265.084 715.142 265.201 711.664 265.201C707.982 265.172 706.696 265.055 704.796 264.529C703.51 264.178 701.727 263.564 700.851 263.126C699.974 262.687 698.366 261.46 697.314 260.408C695.853 258.976 695.093 257.894 694.187 256.024C693.544 254.65 692.726 252.546 692.404 251.348C692.083 250.149 691.673 247.87 691.498 246.321C691.323 244.45 691.206 228.522 691.206 200.932C691.206 177.551 691.293 158.203 691.381 157.969C691.527 157.589 692.638 157.531 698.98 157.531ZM549.457 160.015C550.948 160.132 552.117 160.395 553.111 160.862C553.929 161.242 555.069 162.119 555.683 162.762C556.267 163.434 557.056 164.516 557.407 165.217C557.962 166.24 558.079 166.912 558.079 169.221C558.079 171.472 557.962 172.202 557.466 173.167C557.115 173.81 556.121 174.979 555.273 175.739C554.309 176.586 553.14 177.317 552.234 177.609C551.182 177.931 549.984 178.048 547.996 177.96C545.658 177.843 545.015 177.697 543.904 177.083C543.174 176.645 542.034 175.68 541.333 174.891C540.66 174.102 539.9 172.875 539.667 172.144C539.404 171.413 539.228 170.04 539.228 169.075C539.228 168.111 539.404 166.737 539.637 166.006C539.9 165.276 540.719 163.99 541.479 163.113C542.239 162.265 543.378 161.301 543.992 161.009C544.577 160.687 545.57 160.336 546.184 160.161C546.769 160.015 548.259 159.956 549.457 160.015ZM666.217 160.044C667.532 160.132 668.789 160.424 669.724 160.862C670.543 161.242 671.712 162.148 672.355 162.85C672.998 163.551 673.758 164.662 674.079 165.305C674.371 165.919 674.722 167.117 674.839 167.906C674.985 168.724 674.956 169.981 674.81 170.77C674.664 171.53 674.313 172.641 673.991 173.254C673.699 173.839 672.735 174.979 671.887 175.739C671.01 176.499 669.724 177.317 668.994 177.58C668.263 177.814 666.626 177.989 665.34 177.989C663.908 177.989 662.418 177.814 661.541 177.492C660.547 177.171 659.583 176.499 658.443 175.388C657.332 174.248 656.66 173.284 656.339 172.29C656.046 171.501 655.842 170.04 655.842 169.075C655.842 168.111 656.017 166.737 656.251 166.006C656.514 165.276 657.332 163.99 658.092 163.113C658.852 162.265 660.021 161.272 660.664 160.95C661.307 160.658 662.359 160.278 663.002 160.132C663.645 160.015 665.107 159.956 666.217 160.044ZM154.403 161.622C176.089 161.622 180.59 161.681 182.753 162.061C184.156 162.295 186.582 162.967 188.16 163.522C189.709 164.077 191.93 165.1 193.041 165.772C194.181 166.445 196.197 168.081 197.6 169.484C199.032 170.916 200.64 172.875 201.312 174.044C201.984 175.154 202.832 177.025 203.212 178.135C203.621 179.246 204.088 181.175 204.293 182.373C204.527 183.776 204.614 186.114 204.498 188.803C204.41 192.076 204.205 193.508 203.708 195.087C203.358 196.197 202.598 198.068 202.043 199.178C201.487 200.289 200.318 202.072 199.471 203.124C198.623 204.176 197.162 205.637 196.226 206.368C195.262 207.099 193.976 208.005 193.333 208.385C192.69 208.794 191.258 209.437 190.118 209.875C188.072 210.664 188.072 210.664 189.095 210.81C189.651 210.927 191.316 211.6 192.749 212.301C194.21 213.032 196.197 214.318 197.191 215.165C198.185 216.013 199.675 217.503 200.494 218.468C201.341 219.432 202.452 220.952 202.949 221.829C203.475 222.706 204.176 224.167 204.527 225.044C204.878 225.921 205.433 227.645 205.754 228.843C206.076 230.041 206.426 232.35 206.514 233.958C206.631 235.624 206.573 237.933 206.368 239.365C206.193 240.738 205.784 242.901 205.433 244.187C205.111 245.473 204.41 247.46 203.884 248.571C203.358 249.682 202.335 251.406 201.604 252.37C200.873 253.335 199.558 254.767 198.711 255.556C197.834 256.345 196.285 257.544 195.233 258.245C194.181 258.917 192.427 259.882 191.287 260.349C190.177 260.846 188.248 261.489 187.049 261.811C185.851 262.161 183.834 262.571 182.607 262.717C181.146 262.921 171.033 263.038 154.754 263.038C132.425 263.038 129.122 262.98 128.743 262.6C128.363 262.22 128.304 256.228 128.304 212.33C128.304 184.916 128.392 162.295 128.48 162.061C128.626 161.681 131.782 161.622 154.403 161.622ZM144.086 204.585C174.336 204.41 176.586 204.351 177.989 203.913C178.866 203.65 180.327 203.065 181.204 202.627C182.081 202.189 183.601 201.049 184.594 200.084C185.676 198.974 186.669 197.629 187.166 196.548C187.634 195.583 188.189 193.859 188.423 192.749C188.686 191.463 188.803 190.001 188.686 188.803C188.598 187.751 188.277 186.173 188.014 185.296C187.722 184.419 187.079 183.045 186.611 182.227C186.143 181.438 185.15 180.181 184.419 179.45C183.688 178.72 182.285 177.726 181.321 177.2C180.386 176.703 178.807 176.06 177.843 175.768C176.294 175.33 174.219 175.242 160.103 175.154L144.145 175.037L144.086 204.585ZM144.086 249.302C172.056 249.272 176.002 249.185 177.843 248.863C179.304 248.6 181.058 247.987 182.578 247.256C184.097 246.525 185.53 245.531 186.465 244.625C187.254 243.807 188.277 242.404 188.745 241.469C189.212 240.534 189.767 239.072 190.001 238.196C190.206 237.29 190.381 235.185 190.381 233.519C190.381 231.415 190.206 229.866 189.826 228.697C189.563 227.733 189.066 226.476 188.803 225.921C188.511 225.336 187.634 224.167 186.816 223.29C185.939 222.296 184.594 221.244 183.367 220.572C182.256 219.988 180.298 219.228 179.012 218.906C176.762 218.322 175.856 218.292 160.366 218.292L144.086 218.322V249.302ZM247.344 161.681C268.299 161.798 269.76 161.827 272.537 162.411C274.144 162.733 276.512 163.288 277.798 163.639C279.083 163.99 281.451 164.779 283.058 165.422C284.666 166.036 287.413 167.38 289.196 168.403C290.979 169.397 293.609 171.092 295.041 172.173C296.473 173.225 298.899 175.417 300.448 176.995C301.968 178.574 304.043 181.116 305.066 182.665C306.089 184.185 307.755 187.137 308.778 189.241C309.771 191.316 311.028 194.356 311.525 195.963C312.022 197.571 312.694 200.318 313.015 202.101C313.425 204.118 313.688 207.157 313.805 210.431C313.892 213.587 313.834 216.656 313.6 218.468C313.425 220.075 313.074 222.355 312.84 223.582C312.577 224.781 311.992 227.09 311.496 228.697C310.999 230.305 310.21 232.526 309.713 233.666C309.216 234.776 308.105 236.939 307.229 238.488C306.352 240.008 305.066 242.054 304.394 243.018C303.721 243.982 302.055 245.911 300.682 247.344C299.337 248.776 297.262 250.734 296.064 251.698C294.837 252.663 292.411 254.299 290.657 255.352C288.874 256.404 286.712 257.573 285.835 257.982C284.929 258.362 283.351 259.005 282.328 259.414C281.275 259.794 279.23 260.466 277.798 260.875C276.336 261.285 273.706 261.869 271.952 262.22C268.913 262.804 267.51 262.834 247.256 262.95C227.849 263.067 225.716 263.038 225.248 262.6C224.751 262.161 224.751 259.414 224.751 212.33C224.751 184.916 224.81 162.295 224.927 162.032C225.102 161.622 227.47 161.593 247.344 161.681ZM240.534 249.302C263.652 249.097 266.867 248.98 268.737 248.6C270.023 248.366 272.186 247.811 273.56 247.373C274.904 246.934 277.213 245.999 278.674 245.268C280.106 244.538 282.006 243.456 282.912 242.843C283.789 242.229 285.338 241.031 286.332 240.183C287.325 239.336 288.699 237.962 289.371 237.173C290.014 236.354 291.271 234.513 292.118 233.081C292.995 231.62 294.135 229.398 294.69 228.113C295.246 226.827 296.006 224.459 296.415 222.852C296.824 221.244 297.35 218.205 297.555 216.13C297.847 213.119 297.847 211.512 297.584 208.531C297.379 206.426 296.853 203.212 296.386 201.37C295.918 199.471 294.924 196.694 294.164 195.087C293.404 193.479 292.323 191.375 291.739 190.41C291.154 189.446 289.927 187.868 289.05 186.903C288.173 185.939 286.653 184.448 285.689 183.601C284.724 182.724 282.883 181.409 281.597 180.62C280.311 179.86 278.324 178.807 277.213 178.34C276.073 177.843 274.232 177.171 273.121 176.849C271.981 176.499 269.877 176.002 268.445 175.739C266.37 175.359 263.126 175.242 253.189 175.125L240.592 174.979L240.534 249.302ZM353.932 161.622L354.4 162.733C354.663 163.317 355.452 165.334 356.124 167.175C356.826 169.017 358.843 174.014 360.596 178.281C362.35 182.548 365.389 189.914 367.318 194.648C369.247 199.383 372.141 206.573 373.748 210.577C375.326 214.61 378.073 221.332 379.827 225.57C381.581 229.778 383.1 233.139 383.188 233.023C383.276 232.906 384.942 228.902 386.9 224.167C388.858 219.432 391.225 213.499 392.161 211.015C393.125 208.531 394.849 204.176 396.019 201.37C397.188 198.565 400.227 191.141 402.799 184.857C405.371 178.603 408.235 171.501 409.141 169.075C410.076 166.679 411.099 164.048 412.005 161.768L434.218 161.622L434.247 212.184C434.305 256.901 434.247 262.775 433.867 262.892C433.633 262.98 430.301 263.038 426.473 263.038C422.673 263.038 419.371 262.95 419.195 262.834C418.903 262.658 418.815 253.949 418.669 183.981L414.957 193.041C412.911 198.038 410.31 204.351 409.2 207.069C408.06 209.817 405.839 215.341 404.231 219.345C402.624 223.378 400.432 228.756 399.38 231.327C398.298 233.899 395.668 240.271 393.564 245.502C391.43 250.734 389.033 256.638 388.244 258.625C387.455 260.642 386.637 262.454 386.432 262.658C386.169 262.921 385.146 263.038 383.217 263.067C380.908 263.067 380.265 262.98 379.739 262.541C379.359 262.22 378.22 259.765 376.875 256.316C375.648 253.189 373.836 248.659 372.871 246.233C371.907 243.836 369.481 237.962 367.523 233.227C365.565 228.492 362.759 221.653 361.297 218.029C359.836 214.405 357.849 209.495 356.884 207.069C355.92 204.673 353.494 198.681 351.448 193.771C349.432 188.861 347.707 184.799 347.62 184.711C347.561 184.624 347.473 202.043 347.503 223.378C347.503 258.274 347.444 262.22 347.035 262.6C346.655 262.98 345.398 263.038 339.582 263.038C333.766 263.038 332.509 262.98 332.159 262.6C331.779 262.22 331.72 256.228 331.72 212.33C331.72 184.916 331.779 162.295 331.896 162.061C332.042 161.681 333.532 161.622 353.932 161.622ZM771.286 191.053C773.128 191.112 776.167 191.433 778.008 191.755C779.85 192.076 782.422 192.69 783.708 193.128C784.994 193.567 787.098 194.531 788.355 195.233C789.757 196.022 791.569 197.425 792.914 198.74C794.258 200.055 795.749 201.926 796.684 203.416C797.502 204.79 798.584 206.923 799.051 208.18C799.519 209.408 800.133 211.512 800.396 212.856C800.805 214.902 800.893 218.117 801.097 253.686L799.841 254.884C799.168 255.527 797.561 256.784 796.275 257.631C794.989 258.508 792.563 259.852 790.868 260.642C789.173 261.431 786.747 262.424 785.461 262.863C784.175 263.272 781.925 263.886 780.493 264.178C779.031 264.499 776.226 264.909 774.209 265.113C772.134 265.318 769.036 265.376 767.048 265.289C765.12 265.172 762.431 264.879 761.057 264.616C759.683 264.383 757.462 263.769 756.089 263.272C754.715 262.804 752.669 261.928 751.558 261.314C750.419 260.729 748.724 259.648 747.788 258.946C746.824 258.216 745.216 256.638 744.193 255.439C743.141 254.241 741.855 252.341 741.3 251.201C740.745 250.091 740.072 248.162 739.839 246.964C739.517 245.473 739.429 244.041 739.546 242.433C739.634 241.148 739.897 239.306 740.16 238.342C740.394 237.377 741.154 235.478 741.797 234.104C742.791 232.087 743.492 231.152 745.538 229.135C746.911 227.762 748.84 226.184 749.805 225.628C750.769 225.073 752.874 224.167 754.481 223.641C756.79 222.852 758.134 222.589 760.911 222.384C762.84 222.267 769.182 222.15 785.607 222.121V219.871C785.607 218.614 785.461 216.802 785.286 215.837C785.11 214.873 784.526 213.178 784 212.038C783.357 210.694 782.509 209.525 781.545 208.618C780.726 207.859 779.236 206.836 778.213 206.339C777.219 205.871 775.407 205.257 774.209 204.994C772.835 204.702 770.468 204.527 767.925 204.527C764.593 204.498 763.132 204.644 760.18 205.257C758.164 205.696 755.153 206.514 753.458 207.099C751.763 207.683 749.805 208.472 749.074 208.882C748.344 209.291 747.613 209.554 747.467 209.495C747.291 209.408 746.853 208.502 746.473 207.479C746.064 206.456 745.041 204.059 742.644 198.74L743.287 198.068C743.667 197.688 745.07 196.84 746.444 196.168C747.817 195.525 750.36 194.502 752.143 193.918C753.897 193.333 756.995 192.544 759.011 192.135C761.028 191.726 763.834 191.287 765.295 191.141C766.727 191.024 769.445 190.966 771.286 191.053ZM762.372 234.396C761.729 234.601 760.706 235.01 760.093 235.331C759.508 235.624 758.397 236.413 757.667 237.114C756.907 237.786 756.03 238.868 755.709 239.511C755.387 240.154 755.066 241.411 754.978 242.287C754.832 243.632 754.949 244.187 755.562 245.502C756.059 246.554 756.936 247.665 758.018 248.659C758.982 249.506 760.385 250.529 761.203 250.909C761.992 251.289 763.512 251.844 764.564 252.137C765.996 252.546 767.399 252.663 770.409 252.634C773.42 252.604 774.91 252.458 776.693 251.961C777.979 251.611 779.937 250.909 781.077 250.354C782.188 249.828 783.678 248.98 784.351 248.454L785.607 247.548V233.519C770.994 233.578 766.026 233.695 765.149 233.812C764.272 233.929 763.015 234.192 762.372 234.396ZM548.639 193.216C554.455 193.187 555.654 193.275 556.033 193.625C556.413 194.005 556.472 198.243 556.472 228.113C556.472 258.683 556.413 262.22 556.004 262.6C555.624 262.98 554.397 263.038 548.698 263.038C544.927 263.038 541.654 262.98 541.42 262.892C541.04 262.775 540.982 258.625 540.923 228.142C540.865 198.126 540.923 193.508 541.274 193.391C541.508 193.304 544.84 193.216 548.639 193.216ZM665.37 193.187C671.04 193.187 672.267 193.275 672.647 193.625C673.027 194.005 673.085 198.243 673.085 228.113C673.085 258.683 673.027 262.22 672.618 262.6C672.238 262.98 671.01 263.038 665.311 263.038C659.612 263.038 658.384 262.98 658.034 262.6C657.654 262.22 657.595 257.982 657.566 228.142C657.537 196.928 657.595 194.064 658.034 193.655C658.443 193.275 659.524 193.187 665.37 193.187ZM32.1491 216.276H106.384V224.167C106.384 230.918 106.326 232.087 105.946 232.204C105.712 232.292 89.1992 232.35 69.2667 232.35C49.3343 232.35 32.8213 232.292 32.5875 232.204C32.2076 232.087 32.1491 230.918 32.1491 224.167V216.276ZM64.006 247.256L106.238 247.402L106.297 255.147C106.355 261.08 106.297 262.95 106.004 263.126C105.8 263.243 96.4766 263.33 85.2536 263.33C74.0599 263.33 64.6782 263.272 64.4443 263.184C64.0644 263.067 64.006 261.898 64.006 255.147V247.256Z" fill="url(#paint0_linear_13120_48349)"/>
<defs>
<linearGradient id="paint0_linear_13120_48349" x1="417.5" y1="0" x2="417.5" y2="296.795" gradientUnits="userSpaceOnUse">
<stop stop-color="#FFC700"/>
<stop offset="1" stop-color="#B36B00"/>
</linearGradient>
</defs>
</svg>
