<svg width="1310" height="324" viewBox="0 0 1310 324" fill="none" xmlns="http://www.w3.org/2000/svg">
<path d="M175.786 42.352C171.738 42.352 168.556 41.1933 166.238 38.876C163.921 36.5587 162.762 33.1707 162.762 28.712V11.2H167.162V28.536C167.162 31.968 167.91 34.476 169.406 36.06C170.932 37.644 173.073 38.436 175.83 38.436C178.617 38.436 180.758 37.644 182.254 36.06C183.78 34.476 184.542 31.968 184.542 28.536V11.2H188.81V28.712C188.81 33.1707 187.652 36.5587 185.334 38.876C183.046 41.1933 179.864 42.352 175.786 42.352ZM224.387 18.46C226.264 18.46 227.922 18.8267 229.359 19.56C230.796 20.2933 231.911 21.408 232.703 22.904C233.524 24.4 233.935 26.292 233.935 28.58V42H229.711V29.064C229.711 26.8053 229.183 25.104 228.127 23.96C227.071 22.816 225.59 22.244 223.683 22.244C222.275 22.244 221.043 22.5373 219.987 23.124C218.931 23.7107 218.11 24.576 217.523 25.72C216.966 26.864 216.687 28.2867 216.687 29.988V42H212.463V29.064C212.463 26.8053 211.935 25.104 210.879 23.96C209.852 22.816 208.371 22.244 206.435 22.244C205.056 22.244 203.839 22.5373 202.783 23.124C201.727 23.7107 200.906 24.576 200.319 25.72C199.732 26.864 199.439 28.2867 199.439 29.988V42H195.215V18.68H199.263V24.884L198.603 23.3C199.336 21.7747 200.466 20.5867 201.991 19.736C203.516 18.8853 205.291 18.46 207.315 18.46C209.544 18.46 211.466 19.0173 213.079 20.132C214.692 21.2173 215.748 22.8747 216.247 25.104L214.531 24.4C215.235 22.6107 216.467 21.1733 218.227 20.088C219.987 19.0027 222.04 18.46 224.387 18.46ZM254.183 42V37.072L253.963 36.148V27.744C253.963 25.9547 253.435 24.576 252.379 23.608C251.352 22.6107 249.798 22.112 247.715 22.112C246.336 22.112 244.987 22.3467 243.667 22.816C242.347 23.256 241.232 23.8573 240.323 24.62L238.563 21.452C239.766 20.484 241.203 19.7507 242.875 19.252C244.576 18.724 246.351 18.46 248.199 18.46C251.396 18.46 253.86 19.2373 255.591 20.792C257.322 22.3467 258.187 24.7227 258.187 27.92V42H254.183ZM246.527 42.264C244.796 42.264 243.271 41.9707 241.951 41.384C240.66 40.7973 239.663 39.9907 238.959 38.964C238.255 37.908 237.903 36.72 237.903 35.4C237.903 34.1387 238.196 32.9947 238.783 31.968C239.399 30.9413 240.382 30.12 241.731 29.504C243.11 28.888 244.958 28.58 247.275 28.58H254.667V31.616H247.451C245.339 31.616 243.916 31.968 243.183 32.672C242.45 33.376 242.083 34.2267 242.083 35.224C242.083 36.368 242.538 37.292 243.447 37.996C244.356 38.6707 245.618 39.008 247.231 39.008C248.815 39.008 250.194 38.656 251.367 37.952C252.57 37.248 253.435 36.2213 253.963 34.872L254.799 37.776C254.242 39.1547 253.259 40.2547 251.851 41.076C250.443 41.868 248.668 42.264 246.527 42.264ZM34.1317 95V64.2H46.1437C48.8424 64.2 51.1451 64.6253 53.0517 65.476C54.9584 66.3267 56.4251 67.5587 57.4517 69.172C58.4784 70.7853 58.9917 72.7067 58.9917 74.936C58.9917 77.1653 58.4784 79.0867 57.4517 80.7C56.4251 82.284 54.9584 83.516 53.0517 84.396C51.1451 85.2467 48.8424 85.672 46.1437 85.672H36.5517L38.5317 83.604V95H34.1317ZM38.5317 84.044L36.5517 81.844H46.0117C48.8277 81.844 50.9544 81.2427 52.3917 80.04C53.8584 78.8373 54.5917 77.136 54.5917 74.936C54.5917 72.736 53.8584 71.0347 52.3917 69.832C50.9544 68.6293 48.8277 68.028 46.0117 68.028H36.5517L38.5317 65.828V84.044ZM63.2696 95V62.352H67.4936V95H63.2696ZM88.0347 95V90.072L87.8147 89.148V80.744C87.8147 78.9547 87.2867 77.576 86.2307 76.608C85.204 75.6107 83.6494 75.112 81.5667 75.112C80.188 75.112 78.8387 75.3467 77.5187 75.816C76.1987 76.256 75.084 76.8573 74.1747 77.62L72.4147 74.452C73.6174 73.484 75.0547 72.7507 76.7267 72.252C78.428 71.724 80.2027 71.46 82.0507 71.46C85.248 71.46 87.712 72.2373 89.4427 73.792C91.1734 75.3467 92.0387 77.7227 92.0387 80.92V95H88.0347ZM80.3787 95.264C78.648 95.264 77.1227 94.9707 75.8027 94.384C74.512 93.7973 73.5147 92.9907 72.8107 91.964C72.1067 90.908 71.7547 89.72 71.7547 88.4C71.7547 87.1387 72.048 85.9947 72.6347 84.968C73.2507 83.9413 74.2334 83.12 75.5827 82.504C76.9614 81.888 78.8094 81.58 81.1267 81.58H88.5187V84.616H81.3027C79.1907 84.616 77.768 84.968 77.0347 85.672C76.3014 86.376 75.9347 87.2267 75.9347 88.224C75.9347 89.368 76.3894 90.292 77.2987 90.996C78.208 91.6707 79.4694 92.008 81.0827 92.008C82.6667 92.008 84.0454 91.656 85.2187 90.952C86.4214 90.248 87.2867 89.2213 87.8147 87.872L88.6507 90.776C88.0934 92.1547 87.1107 93.2547 85.7027 94.076C84.2947 94.868 82.52 95.264 80.3787 95.264ZM105.864 95.264C103.517 95.264 101.698 94.6333 100.408 93.372C99.1169 92.1107 98.4716 90.3067 98.4716 87.96V66.576H102.696V87.784C102.696 89.0453 103.004 90.0133 103.62 90.688C104.265 91.3627 105.174 91.7 106.348 91.7C107.668 91.7 108.768 91.3333 109.648 90.6L110.968 93.636C110.322 94.1933 109.545 94.604 108.636 94.868C107.756 95.132 106.832 95.264 105.864 95.264ZM94.5116 75.156V71.68H109.384V75.156H94.5116ZM128.55 95V90.072L128.33 89.148V80.744C128.33 78.9547 127.802 77.576 126.746 76.608C125.72 75.6107 124.165 75.112 122.082 75.112C120.704 75.112 119.354 75.3467 118.034 75.816C116.714 76.256 115.6 76.8573 114.69 77.62L112.93 74.452C114.133 73.484 115.57 72.7507 117.242 72.252C118.944 71.724 120.718 71.46 122.566 71.46C125.764 71.46 128.228 72.2373 129.958 73.792C131.689 75.3467 132.554 77.7227 132.554 80.92V95H128.55ZM120.894 95.264C119.164 95.264 117.638 94.9707 116.318 94.384C115.028 93.7973 114.03 92.9907 113.326 91.964C112.622 90.908 112.27 89.72 112.27 88.4C112.27 87.1387 112.564 85.9947 113.15 84.968C113.766 83.9413 114.749 83.12 116.098 82.504C117.477 81.888 119.325 81.58 121.642 81.58H129.034V84.616H121.818C119.706 84.616 118.284 84.968 117.55 85.672C116.817 86.376 116.45 87.2267 116.45 88.224C116.45 89.368 116.905 90.292 117.814 90.996C118.724 91.6707 119.985 92.008 121.598 92.008C123.182 92.008 124.561 91.656 125.734 90.952C126.937 90.248 127.802 89.2213 128.33 87.872L129.166 90.776C128.609 92.1547 127.626 93.2547 126.218 94.076C124.81 94.868 123.036 95.264 120.894 95.264ZM138.987 95V69.612C138.987 67.324 139.647 65.5053 140.967 64.156C142.317 62.7773 144.223 62.088 146.687 62.088C147.597 62.088 148.462 62.2053 149.283 62.44C150.134 62.6453 150.853 62.9827 151.439 63.452L150.163 66.664C149.723 66.312 149.225 66.048 148.667 65.872C148.11 65.6667 147.523 65.564 146.907 65.564C145.675 65.564 144.737 65.916 144.091 66.62C143.446 67.2947 143.123 68.3067 143.123 69.656V72.78L143.211 74.716V95H138.987ZM135.027 75.156V71.68H149.899V75.156H135.027ZM161.527 95.264C159.18 95.264 157.098 94.7507 155.279 93.724C153.46 92.6973 152.023 91.2893 150.967 89.5C149.911 87.6813 149.383 85.628 149.383 83.34C149.383 81.0227 149.911 78.9693 150.967 77.18C152.023 75.3907 153.46 73.9973 155.279 73C157.098 71.9733 159.18 71.46 161.527 71.46C163.844 71.46 165.912 71.9733 167.731 73C169.579 73.9973 171.016 75.3907 172.043 77.18C173.099 78.94 173.627 80.9933 173.627 83.34C173.627 85.6573 173.099 87.7107 172.043 89.5C171.016 91.2893 169.579 92.6973 167.731 93.724C165.912 94.7507 163.844 95.264 161.527 95.264ZM161.527 91.568C163.023 91.568 164.358 91.2307 165.531 90.556C166.734 89.8813 167.672 88.928 168.347 87.696C169.022 86.4347 169.359 84.9827 169.359 83.34C169.359 81.668 169.022 80.2307 168.347 79.028C167.672 77.796 166.734 76.8427 165.531 76.168C164.358 75.4933 163.023 75.156 161.527 75.156C160.031 75.156 158.696 75.4933 157.523 76.168C156.35 76.8427 155.411 77.796 154.707 79.028C154.003 80.2307 153.651 81.668 153.651 83.34C153.651 84.9827 154.003 86.4347 154.707 87.696C155.411 88.928 156.35 89.8813 157.523 90.556C158.696 91.2307 160.031 91.568 161.527 91.568ZM177.469 95V71.68H181.517V78.016L181.121 76.432C181.766 74.8187 182.852 73.5867 184.377 72.736C185.902 71.8853 187.78 71.46 190.009 71.46V75.552C189.833 75.5227 189.657 75.508 189.481 75.508C189.334 75.508 189.188 75.508 189.041 75.508C186.782 75.508 184.993 76.1827 183.673 77.532C182.353 78.8813 181.693 80.832 181.693 83.384V95H177.469ZM222.387 71.46C224.264 71.46 225.922 71.8267 227.359 72.56C228.796 73.2933 229.911 74.408 230.703 75.904C231.524 77.4 231.935 79.292 231.935 81.58V95H227.711V82.064C227.711 79.8053 227.183 78.104 226.127 76.96C225.071 75.816 223.59 75.244 221.683 75.244C220.275 75.244 219.043 75.5373 217.987 76.124C216.931 76.7107 216.11 77.576 215.523 78.72C214.966 79.864 214.687 81.2867 214.687 82.988V95H210.463V82.064C210.463 79.8053 209.935 78.104 208.879 76.96C207.852 75.816 206.371 75.244 204.435 75.244C203.056 75.244 201.839 75.5373 200.783 76.124C199.727 76.7107 198.906 77.576 198.319 78.72C197.732 79.864 197.439 81.2867 197.439 82.988V95H193.215V71.68H197.263V77.884L196.603 76.3C197.336 74.7747 198.466 73.5867 199.991 72.736C201.516 71.8853 203.291 71.46 205.315 71.46C207.544 71.46 209.466 72.0173 211.079 73.132C212.692 74.2173 213.748 75.8747 214.247 78.104L212.531 77.4C213.235 75.6107 214.467 74.1733 216.227 73.088C217.987 72.0027 220.04 71.46 222.387 71.46ZM252.183 95V90.072L251.963 89.148V80.744C251.963 78.9547 251.435 77.576 250.379 76.608C249.352 75.6107 247.798 75.112 245.715 75.112C244.336 75.112 242.987 75.3467 241.667 75.816C240.347 76.256 239.232 76.8573 238.323 77.62L236.563 74.452C237.766 73.484 239.203 72.7507 240.875 72.252C242.576 71.724 244.351 71.46 246.199 71.46C249.396 71.46 251.86 72.2373 253.591 73.792C255.322 75.3467 256.187 77.7227 256.187 80.92V95H252.183ZM244.527 95.264C242.796 95.264 241.271 94.9707 239.951 94.384C238.66 93.7973 237.663 92.9907 236.959 91.964C236.255 90.908 235.903 89.72 235.903 88.4C235.903 87.1387 236.196 85.9947 236.783 84.968C237.399 83.9413 238.382 83.12 239.731 82.504C241.11 81.888 242.958 81.58 245.275 81.58H252.667V84.616H245.451C243.339 84.616 241.916 84.968 241.183 85.672C240.45 86.376 240.083 87.2267 240.083 88.224C240.083 89.368 240.538 90.292 241.447 90.996C242.356 91.6707 243.618 92.008 245.231 92.008C246.815 92.008 248.194 91.656 249.367 90.952C250.57 90.248 251.435 89.2213 251.963 87.872L252.799 90.776C252.242 92.1547 251.259 93.2547 249.851 94.076C248.443 94.868 246.668 95.264 244.527 95.264Z" fill="white"/>
<path d="M273.335 173V84.1H286.035V173H273.335ZM341.813 105.055C347.317 105.055 352.143 106.113 356.291 108.23C360.525 110.347 363.827 113.564 366.197 117.882C368.568 122.2 369.753 127.661 369.753 134.265V173H357.561V135.662C357.561 129.143 355.953 124.232 352.735 120.93C349.603 117.628 345.158 115.977 339.4 115.977C335.082 115.977 331.315 116.824 328.097 118.517C324.88 120.21 322.382 122.708 320.604 126.01C318.911 129.312 318.064 133.418 318.064 138.329V173H305.872V105.69H317.556V123.851L315.651 119.025C317.853 114.622 321.239 111.193 325.811 108.738C330.383 106.283 335.717 105.055 341.813 105.055ZM389.095 173V99.721C389.095 93.117 391 87.8677 394.81 83.973C398.704 79.9937 404.208 78.004 411.32 78.004C413.944 78.004 416.442 78.3427 418.813 79.02C421.268 79.6127 423.342 80.5863 425.036 81.941L421.353 91.212C420.083 90.196 418.643 89.434 417.035 88.926C415.426 88.3333 413.733 88.037 411.955 88.037C408.399 88.037 405.689 89.053 403.827 91.085C401.964 93.0323 401.033 95.9533 401.033 99.848V108.865L401.287 114.453V173H389.095ZM377.665 115.723V105.69H420.591V115.723H377.665ZM432.148 173V105.69H444.34V173H432.148ZM438.244 92.736C435.873 92.736 433.883 91.974 432.275 90.45C430.751 88.926 429.989 87.0633 429.989 84.862C429.989 82.576 430.751 80.671 432.275 79.147C433.883 77.623 435.873 76.861 438.244 76.861C440.614 76.861 442.562 77.623 444.086 79.147C445.694 80.5863 446.499 82.4067 446.499 84.608C446.499 86.894 445.737 88.8413 444.213 90.45C442.689 91.974 440.699 92.736 438.244 92.736ZM498.501 105.055C504.004 105.055 508.83 106.113 512.979 108.23C517.212 110.347 520.514 113.564 522.885 117.882C525.256 122.2 526.441 127.661 526.441 134.265V173H514.249V135.662C514.249 129.143 512.64 124.232 509.423 120.93C506.29 117.628 501.845 115.977 496.088 115.977C491.77 115.977 488.002 116.824 484.785 118.517C481.568 120.21 479.07 122.708 477.292 126.01C475.599 129.312 474.752 133.418 474.752 138.329V173H462.56V105.69H474.244V123.851L472.339 119.025C474.54 114.622 477.927 111.193 482.499 108.738C487.071 106.283 492.405 105.055 498.501 105.055ZM544.004 173V105.69H556.196V173H544.004ZM550.1 92.736C547.73 92.736 545.74 91.974 544.131 90.45C542.607 88.926 541.845 87.0633 541.845 84.862C541.845 82.576 542.607 80.671 544.131 79.147C545.74 77.623 547.73 76.861 550.1 76.861C552.471 76.861 554.418 77.623 555.942 79.147C557.551 80.5863 558.355 82.4067 558.355 84.608C558.355 86.894 557.593 88.8413 556.069 90.45C554.545 91.974 552.556 92.736 550.1 92.736ZM597.589 173.762C590.816 173.762 585.566 171.942 581.841 168.301C578.116 164.66 576.253 159.453 576.253 152.68V90.958H588.445V152.172C588.445 155.813 589.334 158.607 591.112 160.554C592.975 162.501 595.599 163.475 598.986 163.475C602.796 163.475 605.971 162.417 608.511 160.3L612.321 169.063C610.458 170.672 608.215 171.857 605.59 172.619C603.05 173.381 600.383 173.762 597.589 173.762ZM564.823 115.723V105.69H607.749V115.723H564.823ZM663.844 173V158.776L663.209 156.109V131.852C663.209 126.687 661.685 122.708 658.637 119.914C655.674 117.035 651.186 115.596 645.175 115.596C641.196 115.596 637.301 116.273 633.491 117.628C629.681 118.898 626.464 120.634 623.839 122.835L618.759 113.691C622.23 110.897 626.379 108.78 631.205 107.341C636.116 105.817 641.238 105.055 646.572 105.055C655.801 105.055 662.913 107.299 667.908 111.786C672.903 116.273 675.401 123.131 675.401 132.36V173H663.844ZM641.746 173.762C636.751 173.762 632.348 172.915 628.538 171.222C624.813 169.529 621.934 167.2 619.902 164.237C617.87 161.189 616.854 157.76 616.854 153.95C616.854 150.309 617.701 147.007 619.394 144.044C621.172 141.081 624.008 138.71 627.903 136.932C631.882 135.154 637.216 134.265 643.905 134.265H665.241V143.028H644.413C638.317 143.028 634.211 144.044 632.094 146.076C629.977 148.108 628.919 150.563 628.919 153.442C628.919 156.744 630.231 159.411 632.856 161.443C635.481 163.39 639.121 164.364 643.778 164.364C648.35 164.364 652.329 163.348 655.716 161.316C659.187 159.284 661.685 156.321 663.209 152.426L665.622 160.808C664.013 164.787 661.177 167.962 657.113 170.333C653.049 172.619 647.927 173.762 641.746 173.762ZM712.267 173.762C706.679 173.762 701.345 173 696.265 171.476C691.27 169.952 687.333 168.089 684.454 165.888L689.534 156.236C692.413 158.183 695.969 159.834 700.202 161.189C704.436 162.544 708.754 163.221 713.156 163.221C718.829 163.221 722.893 162.417 725.348 160.808C727.888 159.199 729.158 156.956 729.158 154.077C729.158 151.96 728.396 150.309 726.872 149.124C725.348 147.939 723.316 147.05 720.776 146.457C718.321 145.864 715.569 145.356 712.521 144.933C709.473 144.425 706.425 143.832 703.377 143.155C700.329 142.393 697.535 141.377 694.995 140.107C692.455 138.752 690.423 136.932 688.899 134.646C687.375 132.275 686.613 129.143 686.613 125.248C686.613 121.184 687.756 117.628 690.042 114.58C692.328 111.532 695.546 109.204 699.694 107.595C703.928 105.902 708.923 105.055 714.68 105.055C719.083 105.055 723.528 105.605 728.015 106.706C732.587 107.722 736.313 109.204 739.191 111.151L733.984 120.803C730.936 118.771 727.761 117.374 724.459 116.612C721.157 115.85 717.855 115.469 714.553 115.469C709.219 115.469 705.24 116.358 702.615 118.136C699.991 119.829 698.678 122.031 698.678 124.74C698.678 127.026 699.44 128.804 700.964 130.074C702.573 131.259 704.605 132.191 707.06 132.868C709.6 133.545 712.394 134.138 715.442 134.646C718.49 135.069 721.538 135.662 724.586 136.424C727.634 137.101 730.386 138.075 732.841 139.345C735.381 140.615 737.413 142.393 738.937 144.679C740.546 146.965 741.35 150.013 741.35 153.823C741.35 157.887 740.165 161.401 737.794 164.364C735.424 167.327 732.079 169.656 727.761 171.349C723.443 172.958 718.279 173.762 712.267 173.762Z" fill="#FFE000"/>
<path d="M487.941 290.968C481.488 290.968 475.478 289.879 469.912 287.701C464.427 285.523 459.667 282.498 455.634 278.626C451.601 274.673 448.455 270.075 446.196 264.832C443.937 259.589 442.808 253.861 442.808 247.65C442.808 241.439 443.937 235.711 446.196 230.468C448.455 225.225 451.601 220.667 455.634 216.795C459.667 212.842 464.427 209.777 469.912 207.599C475.397 205.421 481.407 204.332 487.941 204.332C494.394 204.332 500.323 205.421 505.728 207.599C511.213 209.696 515.973 212.721 520.006 216.674C524.12 220.546 527.266 225.104 529.444 230.347C531.703 235.59 532.832 241.358 532.832 247.65C532.832 253.942 531.703 259.71 529.444 264.953C527.266 270.196 524.12 274.794 520.006 278.747C515.973 282.619 511.213 285.644 505.728 287.822C500.323 289.919 494.394 290.968 487.941 290.968ZM487.941 280.199C492.62 280.199 496.935 279.392 500.888 277.779C504.921 276.166 508.39 273.907 511.294 271.003C514.279 268.018 516.578 264.55 518.191 260.597C519.885 256.644 520.732 252.329 520.732 247.65C520.732 242.971 519.885 238.656 518.191 234.703C516.578 230.75 514.279 227.322 511.294 224.418C508.39 221.433 504.921 219.134 500.888 217.521C496.935 215.908 492.62 215.101 487.941 215.101C483.182 215.101 478.785 215.908 474.752 217.521C470.799 219.134 467.331 221.433 464.346 224.418C461.361 227.322 459.022 230.75 457.328 234.703C455.715 238.656 454.908 242.971 454.908 247.65C454.908 252.329 455.715 256.644 457.328 260.597C459.022 264.55 461.361 268.018 464.346 271.003C467.331 273.907 470.799 276.166 474.752 277.779C478.785 279.392 483.182 280.199 487.941 280.199ZM578.633 290.726C573.309 290.726 568.429 289.516 563.992 287.096C559.636 284.595 556.127 280.925 553.465 276.085C550.884 271.245 549.593 265.195 549.593 257.935C549.593 250.675 550.843 244.625 553.344 239.785C555.925 234.945 559.394 231.315 563.75 228.895C568.187 226.475 573.148 225.265 578.633 225.265C584.925 225.265 590.491 226.636 595.331 229.379C600.171 232.122 604.003 235.953 606.826 240.874C609.649 245.714 611.061 251.401 611.061 257.935C611.061 264.469 609.649 270.196 606.826 275.117C604.003 280.038 600.171 283.869 595.331 286.612C590.491 289.355 584.925 290.726 578.633 290.726ZM544.632 313.474V225.87H555.764V243.173L555.038 258.056L556.248 272.939V313.474H544.632ZM577.665 280.562C581.779 280.562 585.449 279.634 588.676 277.779C591.983 275.924 594.565 273.302 596.42 269.914C598.356 266.445 599.324 262.452 599.324 257.935C599.324 253.337 598.356 249.384 596.42 246.077C594.565 242.689 591.983 240.067 588.676 238.212C585.449 236.357 581.779 235.429 577.665 235.429C573.632 235.429 569.961 236.357 566.654 238.212C563.427 240.067 560.846 242.689 558.91 246.077C557.055 249.384 556.127 253.337 556.127 257.935C556.127 262.452 557.055 266.445 558.91 269.914C560.846 273.302 563.427 275.924 566.654 277.779C569.961 279.634 573.632 280.562 577.665 280.562ZM649.578 290.726C643.124 290.726 637.397 289.314 632.396 286.491C627.394 283.668 623.442 279.796 620.538 274.875C617.634 269.874 616.182 264.227 616.182 257.935C616.182 251.562 617.634 245.916 620.538 240.995C623.442 236.074 627.394 232.243 632.396 229.5C637.397 226.677 643.124 225.265 649.578 225.265C655.95 225.265 661.637 226.677 666.639 229.5C671.721 232.243 675.673 236.074 678.497 240.995C681.401 245.835 682.853 251.482 682.853 257.935C682.853 264.308 681.401 269.954 678.497 274.875C675.673 279.796 671.721 283.668 666.639 286.491C661.637 289.314 655.95 290.726 649.578 290.726ZM649.578 280.562C653.692 280.562 657.362 279.634 660.589 277.779C663.896 275.924 666.477 273.302 668.333 269.914C670.188 266.445 671.116 262.452 671.116 257.935C671.116 253.337 670.188 249.384 668.333 246.077C666.477 242.689 663.896 240.067 660.589 238.212C657.362 236.357 653.692 235.429 649.578 235.429C645.464 235.429 641.793 236.357 638.567 238.212C635.34 240.067 632.759 242.689 630.823 246.077C628.887 249.384 627.919 253.337 627.919 257.935C627.919 262.452 628.887 266.445 630.823 269.914C632.759 273.302 635.34 275.924 638.567 277.779C641.793 279.634 645.464 280.562 649.578 280.562ZM693.917 290V225.87H705.049V243.294L703.96 238.938C705.735 234.501 708.72 231.113 712.914 228.774C717.109 226.435 722.272 225.265 728.402 225.265V236.518C727.918 236.437 727.434 236.397 726.95 236.397C726.547 236.397 726.144 236.397 725.74 236.397C719.529 236.397 714.608 238.252 710.978 241.963C707.348 245.674 705.533 251.038 705.533 258.056V290H693.917ZM762.341 290.726C755.887 290.726 750.886 288.992 747.337 285.523C743.787 282.054 742.013 277.093 742.013 270.64V211.834H753.629V270.156C753.629 273.625 754.476 276.287 756.17 278.142C757.944 279.997 760.445 280.925 763.672 280.925C767.302 280.925 770.327 279.917 772.747 277.9L776.377 286.249C774.602 287.782 772.464 288.911 769.964 289.637C767.544 290.363 765.003 290.726 762.341 290.726ZM731.123 235.429V225.87H772.021V235.429H731.123ZM812.403 290.726C806.918 290.726 802.078 289.718 797.883 287.701C793.769 285.684 790.543 282.619 788.203 278.505C785.945 274.31 784.815 269.067 784.815 262.775V225.87H796.431V261.444C796.431 267.736 797.924 272.455 800.908 275.601C803.974 278.747 808.249 280.32 813.734 280.32C817.768 280.32 821.277 279.513 824.261 277.9C827.246 276.206 829.545 273.786 831.158 270.64C832.772 267.413 833.578 263.541 833.578 259.024V225.87H845.194V290H834.183V272.697L835.998 277.295C833.901 281.57 830.755 284.878 826.56 287.217C822.366 289.556 817.647 290.726 812.403 290.726ZM896.551 225.265C901.794 225.265 906.392 226.273 910.345 228.29C914.378 230.307 917.524 233.372 919.783 237.486C922.042 241.6 923.171 246.803 923.171 253.095V290H911.555V254.426C911.555 248.215 910.022 243.536 906.957 240.39C903.972 237.244 899.737 235.671 894.252 235.671C890.138 235.671 886.548 236.478 883.483 238.091C880.418 239.704 878.038 242.084 876.344 245.23C874.731 248.376 873.924 252.288 873.924 256.967V290H862.308V225.87H873.44V243.173L871.625 238.575C873.722 234.38 876.949 231.113 881.305 228.774C885.661 226.435 890.743 225.265 896.551 225.265ZM939.668 290V225.87H951.284V290H939.668ZM945.476 213.528C943.218 213.528 941.322 212.802 939.789 211.35C938.337 209.898 937.611 208.123 937.611 206.026C937.611 203.848 938.337 202.033 939.789 200.581C941.322 199.129 943.218 198.403 945.476 198.403C947.735 198.403 949.59 199.129 951.042 200.581C952.575 201.952 953.341 203.687 953.341 205.784C953.341 207.962 952.615 209.817 951.163 211.35C949.711 212.802 947.816 213.528 945.476 213.528ZM994.962 290.726C988.751 290.726 983.185 289.355 978.264 286.612C973.424 283.869 969.592 280.038 966.769 275.117C963.946 270.196 962.534 264.469 962.534 257.935C962.534 251.401 963.946 245.714 966.769 240.874C969.592 235.953 973.424 232.122 978.264 229.379C983.185 226.636 988.751 225.265 994.962 225.265C1000.37 225.265 1005.25 226.475 1009.6 228.895C1013.96 231.315 1017.43 234.945 1020.01 239.785C1022.67 244.625 1024 250.675 1024 257.935C1024 265.195 1022.71 271.245 1020.13 276.085C1017.63 280.925 1014.2 284.595 1009.85 287.096C1005.49 289.516 1000.53 290.726 994.962 290.726ZM995.93 280.562C999.963 280.562 1003.59 279.634 1006.82 277.779C1010.13 275.924 1012.71 273.302 1014.56 269.914C1016.5 266.445 1017.47 262.452 1017.47 257.935C1017.47 253.337 1016.5 249.384 1014.56 246.077C1012.71 242.689 1010.13 240.067 1006.82 238.212C1003.59 236.357 999.963 235.429 995.93 235.429C991.816 235.429 988.146 236.357 984.919 238.212C981.692 240.067 979.111 242.689 977.175 246.077C975.239 249.384 974.271 253.337 974.271 257.935C974.271 262.452 975.239 266.445 977.175 269.914C979.111 273.302 981.692 275.924 984.919 277.779C988.146 279.634 991.816 280.562 995.93 280.562ZM1017.83 290V272.697L1018.56 257.814L1017.35 242.931V200.218H1028.96V290H1017.83ZM1085.75 290V276.448L1085.15 273.907V250.796C1085.15 245.875 1083.69 242.084 1080.79 239.422C1077.97 236.679 1073.69 235.308 1067.96 235.308C1064.17 235.308 1060.46 235.953 1056.83 237.244C1053.2 238.454 1050.14 240.108 1047.64 242.205L1042.8 233.493C1046.1 230.831 1050.06 228.814 1054.65 227.443C1059.33 225.991 1064.21 225.265 1069.29 225.265C1078.09 225.265 1084.86 227.403 1089.62 231.678C1094.38 235.953 1096.76 242.487 1096.76 251.28V290H1085.75ZM1064.7 290.726C1059.94 290.726 1055.74 289.919 1052.11 288.306C1048.56 286.693 1045.82 284.474 1043.88 281.651C1041.95 278.747 1040.98 275.48 1040.98 271.85C1040.98 268.381 1041.79 265.235 1043.4 262.412C1045.09 259.589 1047.8 257.33 1051.51 255.636C1055.3 253.942 1060.38 253.095 1066.75 253.095H1087.08V261.444H1067.24C1061.43 261.444 1057.52 262.412 1055.5 264.348C1053.48 266.284 1052.48 268.623 1052.48 271.366C1052.48 274.512 1053.73 277.053 1056.23 278.989C1058.73 280.844 1062.2 281.772 1066.63 281.772C1070.99 281.772 1074.78 280.804 1078.01 278.868C1081.31 276.932 1083.69 274.109 1085.15 270.398L1087.44 278.384C1085.91 282.175 1083.21 285.2 1079.34 287.459C1075.47 289.637 1070.59 290.726 1064.7 290.726ZM1139.76 290.726C1133.55 290.726 1127.98 289.355 1123.06 286.612C1118.22 283.869 1114.39 280.038 1111.56 275.117C1108.74 270.196 1107.33 264.469 1107.33 257.935C1107.33 251.401 1108.74 245.714 1111.56 240.874C1114.39 235.953 1118.22 232.122 1123.06 229.379C1127.98 226.636 1133.55 225.265 1139.76 225.265C1145.16 225.265 1150.04 226.475 1154.4 228.895C1158.75 231.315 1162.22 234.945 1164.8 239.785C1167.47 244.625 1168.8 250.675 1168.8 257.935C1168.8 265.195 1167.51 271.245 1164.93 276.085C1162.42 280.925 1159 284.595 1154.64 287.096C1150.28 289.516 1145.32 290.726 1139.76 290.726ZM1140.73 280.562C1144.76 280.562 1148.39 279.634 1151.62 277.779C1154.92 275.924 1157.5 273.302 1159.36 269.914C1161.3 266.445 1162.26 262.452 1162.26 257.935C1162.26 253.337 1161.3 249.384 1159.36 246.077C1157.5 242.689 1154.92 240.067 1151.62 238.212C1148.39 236.357 1144.76 235.429 1140.73 235.429C1136.61 235.429 1132.94 236.357 1129.71 238.212C1126.49 240.067 1123.91 242.689 1121.97 246.077C1120.03 249.384 1119.07 253.337 1119.07 257.935C1119.07 262.452 1120.03 266.445 1121.97 269.914C1123.91 273.302 1126.49 275.924 1129.71 277.779C1132.94 279.634 1136.61 280.562 1140.73 280.562ZM1162.63 290V272.697L1163.35 257.814L1162.14 242.931V200.218H1173.76V290H1162.63ZM1219.29 290.726C1212.44 290.726 1206.39 289.314 1201.14 286.491C1195.98 283.668 1191.95 279.796 1189.04 274.875C1186.22 269.954 1184.81 264.308 1184.81 257.935C1184.81 251.562 1186.18 245.916 1188.92 240.995C1191.74 236.074 1195.58 232.243 1200.42 229.5C1205.34 226.677 1210.86 225.265 1216.99 225.265C1223.2 225.265 1228.69 226.636 1233.45 229.379C1238.21 232.122 1241.92 235.994 1244.58 240.995C1247.32 245.916 1248.7 251.683 1248.7 258.298C1248.7 258.782 1248.66 259.347 1248.57 259.992C1248.57 260.637 1248.53 261.242 1248.45 261.807H1193.88V253.458H1242.4L1237.68 256.362C1237.77 252.248 1236.92 248.578 1235.14 245.351C1233.37 242.124 1230.91 239.624 1227.76 237.849C1224.7 235.994 1221.11 235.066 1216.99 235.066C1212.96 235.066 1209.37 235.994 1206.22 237.849C1203.08 239.624 1200.62 242.165 1198.84 245.472C1197.07 248.699 1196.18 252.409 1196.18 256.604V258.54C1196.18 262.815 1197.15 266.647 1199.09 270.035C1201.1 273.342 1203.89 275.924 1207.43 277.779C1210.98 279.634 1215.06 280.562 1219.66 280.562C1223.45 280.562 1226.88 279.917 1229.94 278.626C1233.09 277.335 1235.83 275.399 1238.17 272.818L1244.58 280.32C1241.68 283.708 1238.05 286.289 1233.69 288.064C1229.42 289.839 1224.62 290.726 1219.29 290.726ZM1278.22 290.726C1272.89 290.726 1267.81 290 1262.97 288.548C1258.21 287.096 1254.46 285.321 1251.72 283.224L1256.56 274.028C1259.3 275.883 1262.69 277.456 1266.72 278.747C1270.76 280.038 1274.87 280.683 1279.06 280.683C1284.47 280.683 1288.34 279.917 1290.68 278.384C1293.1 276.851 1294.31 274.714 1294.31 271.971C1294.31 269.954 1293.58 268.381 1292.13 267.252C1290.68 266.123 1288.74 265.276 1286.32 264.711C1283.99 264.146 1281.36 263.662 1278.46 263.259C1275.56 262.775 1272.65 262.21 1269.75 261.565C1266.84 260.839 1264.18 259.871 1261.76 258.661C1259.34 257.37 1257.41 255.636 1255.95 253.458C1254.5 251.199 1253.78 248.215 1253.78 244.504C1253.78 240.632 1254.86 237.244 1257.04 234.34C1259.22 231.436 1262.29 229.218 1266.24 227.685C1270.27 226.072 1275.03 225.265 1280.52 225.265C1284.71 225.265 1288.95 225.789 1293.22 226.838C1297.58 227.806 1301.13 229.218 1303.87 231.073L1298.91 240.269C1296 238.333 1292.98 237.002 1289.83 236.276C1286.69 235.55 1283.54 235.187 1280.4 235.187C1275.31 235.187 1271.52 236.034 1269.02 237.728C1266.52 239.341 1265.27 241.439 1265.27 244.02C1265.27 246.198 1266 247.892 1267.45 249.102C1268.98 250.231 1270.92 251.119 1273.26 251.764C1275.68 252.409 1278.34 252.974 1281.24 253.458C1284.15 253.861 1287.05 254.426 1289.95 255.152C1292.86 255.797 1295.48 256.725 1297.82 257.935C1300.24 259.145 1302.18 260.839 1303.63 263.017C1305.16 265.195 1305.93 268.099 1305.93 271.729C1305.93 275.601 1304.8 278.949 1302.54 281.772C1300.28 284.595 1297.09 286.814 1292.98 288.427C1288.87 289.96 1283.94 290.726 1278.22 290.726Z" fill="white"/>
</svg>
